<svg id="svg" version="1.1" xmlns="http://www.w3.org/2000/svg" xmlns:xlink="http://www.w3.org/1999/xlink" width="400" height="400" viewBox="0, 0, 400,400"><g id="svgg"><path id="path0" d="M132.400 131.986 C 132.400 132.214,131.669 132.400,130.776 132.400 C 129.796 132.400,129.251 132.558,129.400 132.800 C 129.546 133.036,129.097 133.200,128.303 133.200 C 126.906 133.200,124.809 133.979,124.803 134.500 C 124.801 134.665,124.249 134.800,123.576 134.800 C 122.863 134.800,122.456 134.967,122.600 135.200 C 122.736 135.420,122.487 135.600,122.047 135.600 C 121.607 135.600,121.136 135.780,121.000 136.000 C 120.864 136.220,120.470 136.400,120.123 136.400 C 119.777 136.400,119.191 136.749,118.822 137.175 C 118.452 137.601,117.901 138.006,117.598 138.075 C 116.263 138.378,109.650 145.001,108.810 146.876 C 108.436 147.712,108.011 148.277,107.865 148.132 C 107.719 147.986,107.600 148.246,107.600 148.710 C 107.600 149.173,107.420 149.664,107.200 149.800 C 106.980 149.936,106.800 150.487,106.800 151.024 C 106.800 151.561,106.620 152.000,106.400 152.000 C 106.180 152.000,106.000 152.349,106.000 152.776 C 106.000 153.203,105.820 153.664,105.600 153.800 C 105.380 153.936,105.200 155.196,105.200 156.600 C 105.200 158.004,105.009 159.271,104.775 159.416 C 104.501 159.585,104.382 161.584,104.441 165.022 C 104.491 167.961,104.683 170.273,104.866 170.159 C 105.050 170.046,105.200 174.823,105.200 180.776 C 105.200 187.725,105.343 191.600,105.600 191.600 C 105.820 191.600,106.000 192.242,106.000 193.026 C 106.000 193.811,106.181 194.791,106.403 195.205 C 106.624 195.619,106.842 196.404,106.888 196.950 C 106.933 197.496,107.112 197.855,107.285 197.748 C 107.458 197.640,107.600 197.913,107.600 198.353 C 107.600 198.793,107.780 199.264,108.000 199.400 C 108.220 199.536,108.400 200.177,108.400 200.824 C 108.400 201.471,108.591 202.000,108.824 202.000 C 109.057 202.000,109.136 202.180,109.000 202.400 C 108.864 202.620,108.943 202.800,109.176 202.800 C 109.409 202.800,109.563 202.935,109.518 203.100 C 109.137 204.496,116.113 212.259,120.400 215.210 C 121.830 216.195,123.090 217.090,123.200 217.200 C 123.310 217.310,123.670 217.459,124.000 217.530 C 124.330 217.602,124.660 217.827,124.733 218.030 C 124.807 218.234,125.212 218.400,125.633 218.400 C 126.055 218.400,126.400 218.580,126.400 218.800 C 126.400 219.020,126.743 219.200,127.162 219.200 C 127.978 219.200,131.312 220.801,131.533 221.300 C 131.607 221.465,131.942 221.600,132.279 221.600 C 132.616 221.600,133.546 221.943,134.346 222.361 C 136.632 223.558,139.407 224.737,140.656 225.043 C 141.285 225.197,141.890 225.430,142.000 225.562 C 142.453 226.102,145.733 227.600,146.461 227.600 C 146.894 227.600,147.136 227.780,147.000 228.000 C 146.860 228.227,147.196 228.400,147.776 228.400 C 148.339 228.400,148.800 228.580,148.800 228.800 C 148.800 229.020,149.160 229.200,149.600 229.200 C 150.040 229.200,150.400 229.380,150.400 229.600 C 150.400 229.820,150.760 230.000,151.200 230.000 C 151.640 230.000,152.000 230.180,152.000 230.400 C 152.000 230.620,152.360 230.800,152.800 230.800 C 153.240 230.800,153.600 230.980,153.600 231.200 C 153.600 231.420,153.920 231.600,154.311 231.600 C 154.702 231.600,156.063 232.140,157.335 232.800 C 158.607 233.460,159.907 234.000,160.224 234.000 C 160.541 234.000,160.800 234.180,160.800 234.400 C 160.800 234.620,161.160 234.800,161.600 234.800 C 162.040 234.800,162.401 234.935,162.403 235.100 C 162.407 235.506,164.386 236.400,165.280 236.400 C 165.676 236.400,166.000 236.580,166.000 236.800 C 166.000 237.020,166.234 237.200,166.520 237.200 C 167.280 237.200,169.193 238.146,169.197 238.524 C 169.199 238.702,169.344 238.758,169.519 238.650 C 169.695 238.542,170.084 238.605,170.384 238.790 C 171.055 239.205,170.049 240.400,169.029 240.400 C 168.683 240.400,168.400 240.580,168.400 240.800 C 168.400 241.020,168.040 241.200,167.600 241.200 C 167.160 241.200,166.800 241.360,166.800 241.557 C 166.800 241.857,166.096 242.139,164.502 242.479 C 164.336 242.514,163.960 242.782,163.668 243.075 C 163.375 243.368,162.985 243.515,162.802 243.401 C 162.618 243.288,162.408 243.331,162.334 243.498 C 162.147 243.920,158.839 245.600,158.196 245.600 C 157.905 245.600,157.607 245.766,157.533 245.970 C 157.460 246.173,157.130 246.398,156.800 246.470 C 156.470 246.541,156.110 246.698,156.000 246.819 C 155.890 246.939,154.810 247.525,153.600 248.121 C 150.768 249.515,149.229 250.428,148.242 251.300 C 147.806 251.685,147.279 252.000,147.071 252.000 C 146.626 252.000,145.200 253.571,145.200 254.061 C 145.200 254.248,144.973 254.400,144.696 254.400 C 144.151 254.400,143.374 255.442,142.377 257.507 C 142.030 258.225,141.624 258.690,141.473 258.540 C 141.323 258.390,141.200 258.657,141.200 259.133 C 141.200 259.610,141.020 260.000,140.800 260.000 C 140.580 260.000,140.400 260.349,140.400 260.776 C 140.400 261.203,140.220 261.664,140.000 261.800 C 139.780 261.936,139.600 262.497,139.600 263.047 C 139.600 263.612,139.426 263.940,139.200 263.800 C 138.956 263.649,138.800 264.263,138.800 265.376 C 138.800 266.379,138.620 267.200,138.400 267.200 C 138.156 267.200,138.000 269.067,138.000 272.000 C 138.000 274.933,138.156 276.800,138.400 276.800 C 138.620 276.800,138.800 277.520,138.800 278.400 C 138.800 279.280,138.980 280.000,139.200 280.000 C 139.420 280.000,139.600 280.540,139.600 281.200 C 139.600 281.860,139.780 282.400,140.000 282.400 C 140.220 282.400,140.400 282.760,140.400 283.200 C 140.400 283.640,140.580 284.000,140.800 284.000 C 141.020 284.000,141.200 284.360,141.200 284.800 C 141.200 285.240,141.380 285.600,141.600 285.600 C 141.820 285.600,142.000 285.917,142.000 286.305 C 142.000 286.927,143.858 288.998,147.282 292.191 C 147.877 292.746,148.602 293.200,148.894 293.200 C 149.185 293.200,149.683 293.560,150.000 294.000 C 150.317 294.440,150.790 294.800,151.051 294.800 C 151.651 294.800,154.955 296.500,155.133 296.900 C 155.207 297.065,155.524 297.200,155.839 297.200 C 156.153 297.200,156.768 297.380,157.205 297.600 C 157.642 297.820,158.358 298.180,158.795 298.400 C 159.232 298.620,159.872 298.800,160.218 298.800 C 160.564 298.800,160.736 298.980,160.600 299.200 C 160.464 299.420,160.723 299.600,161.176 299.600 C 161.629 299.600,162.000 299.780,162.000 300.000 C 162.000 300.220,162.265 300.400,162.588 300.400 C 162.911 300.400,163.817 300.760,164.600 301.200 C 165.383 301.640,166.379 302.000,166.812 302.000 C 167.245 302.000,167.600 302.180,167.600 302.400 C 167.600 302.620,167.960 302.800,168.400 302.800 C 168.840 302.800,169.200 302.980,169.200 303.200 C 169.200 303.420,169.560 303.600,170.000 303.600 C 170.440 303.600,170.800 303.780,170.800 304.000 C 170.800 304.220,171.160 304.400,171.600 304.400 C 172.040 304.400,172.400 304.610,172.400 304.867 C 172.400 305.123,172.521 305.213,172.668 305.065 C 172.816 304.918,173.349 305.068,173.855 305.399 C 174.360 305.730,175.094 306.050,175.487 306.110 C 176.542 306.271,176.630 306.944,175.655 307.395 C 175.185 307.612,174.800 307.927,174.800 308.095 C 174.800 308.263,174.440 308.400,174.000 308.400 C 173.560 308.400,173.200 308.580,173.200 308.800 C 173.200 309.020,173.065 309.170,172.900 309.134 C 172.303 309.004,170.400 309.695,170.400 310.043 C 170.400 310.240,170.085 310.404,169.700 310.409 C 169.315 310.414,168.550 310.770,168.000 311.200 C 167.450 311.630,166.685 311.986,166.300 311.991 C 165.915 311.996,165.600 312.180,165.600 312.400 C 165.600 312.620,165.355 312.800,165.056 312.800 C 164.546 312.800,159.636 315.150,159.200 315.603 C 159.090 315.717,158.100 316.258,157.000 316.805 C 155.900 317.352,154.940 317.935,154.867 318.100 C 154.793 318.265,154.493 318.400,154.200 318.400 C 153.907 318.400,153.607 318.563,153.533 318.762 C 153.460 318.961,152.967 319.186,152.438 319.262 C 151.542 319.390,145.534 324.791,145.863 325.172 C 145.944 325.267,145.541 325.835,144.967 326.435 C 144.392 327.035,143.956 327.587,143.998 327.663 C 144.082 327.814,143.318 329.804,142.756 330.897 C 141.979 332.408,141.469 339.519,141.938 342.308 C 142.631 346.430,142.735 346.839,143.234 347.441 C 143.489 347.748,143.541 348.003,143.349 348.006 C 143.157 348.009,143.234 348.161,143.520 348.342 C 143.806 348.524,144.069 349.061,144.105 349.536 C 144.141 350.011,144.312 350.400,144.485 350.400 C 144.658 350.400,144.800 350.661,144.800 350.980 C 144.800 351.299,145.115 351.744,145.500 351.968 C 145.885 352.192,146.048 352.381,145.862 352.388 C 145.554 352.399,147.677 354.517,150.800 357.315 C 151.485 357.927,152.575 358.535,153.223 358.665 C 153.870 358.794,154.400 359.058,154.400 359.250 C 154.400 359.443,154.760 359.600,155.200 359.600 C 155.640 359.600,156.000 359.780,156.000 360.000 C 156.000 360.220,156.360 360.400,156.800 360.400 C 157.240 360.400,157.600 360.580,157.600 360.800 C 157.600 361.020,157.865 361.200,158.188 361.200 C 158.511 361.200,159.417 361.560,160.200 362.000 C 160.983 362.440,161.889 362.800,162.212 362.800 C 162.535 362.800,162.800 362.980,162.800 363.200 C 162.800 363.420,163.065 363.600,163.388 363.600 C 163.711 363.600,164.617 363.960,165.400 364.400 C 166.183 364.840,167.099 365.200,167.436 365.200 C 167.772 365.200,167.960 365.342,167.852 365.515 C 167.745 365.688,168.140 365.870,168.729 365.919 C 169.318 365.967,169.860 366.185,169.933 366.403 C 170.007 366.622,170.412 366.800,170.833 366.800 C 171.255 366.800,171.600 366.980,171.600 367.200 C 171.600 367.420,171.960 367.600,172.400 367.600 C 172.840 367.600,173.200 367.780,173.200 368.000 C 173.200 368.220,173.434 368.400,173.720 368.400 C 174.456 368.400,176.393 369.341,176.397 369.700 C 176.399 369.865,176.724 370.000,177.120 370.000 C 178.014 370.000,179.993 370.894,179.997 371.300 C 179.999 371.465,180.360 371.600,180.800 371.600 C 181.240 371.600,181.600 371.780,181.600 372.000 C 181.600 372.220,181.409 372.400,181.176 372.400 C 180.943 372.400,180.864 372.580,181.000 372.800 C 181.136 373.020,180.975 373.200,180.641 373.200 C 180.308 373.200,179.082 373.762,177.918 374.449 C 176.753 375.135,175.710 375.704,175.600 375.712 C 174.869 375.767,174.000 376.143,174.000 376.403 C 174.000 376.574,173.505 376.836,172.900 376.987 C 171.154 377.421,168.639 379.184,167.681 380.645 C 166.735 382.088,166.349 388.000,167.200 388.000 C 167.420 388.000,167.600 388.230,167.600 388.512 C 167.600 388.793,167.982 389.288,168.449 389.612 C 168.916 389.935,169.505 390.380,169.759 390.600 C 170.831 391.532,175.642 391.651,177.200 390.784 C 177.750 390.479,178.320 390.222,178.467 390.214 C 178.613 390.206,178.868 390.065,179.033 389.900 C 179.198 389.735,179.663 389.600,180.067 389.600 C 180.470 389.600,180.800 389.464,180.800 389.298 C 180.800 389.131,181.385 388.758,182.100 388.467 C 182.815 388.177,184.092 387.593,184.938 387.170 C 185.784 386.746,186.684 386.394,186.938 386.387 C 188.643 386.340,188.994 385.317,189.200 379.806 L 189.400 374.445 196.000 377.436 C 209.388 383.503,211.200 384.401,211.200 384.967 C 211.200 385.447,213.083 386.536,215.400 387.395 C 217.712 388.253,219.200 388.998,219.200 389.298 C 219.200 389.464,219.524 389.600,219.920 389.600 C 220.316 389.600,220.811 389.752,221.020 389.937 C 222.537 391.283,230.000 391.980,230.000 390.775 C 230.000 390.599,230.360 390.340,230.800 390.200 C 231.240 390.060,231.600 389.728,231.600 389.461 C 231.600 389.195,231.960 388.717,232.400 388.400 C 234.295 387.034,233.268 380.886,230.815 378.903 C 230.253 378.449,224.467 375.476,224.000 375.401 C 223.215 375.276,218.880 372.854,219.081 372.653 C 219.220 372.514,219.123 372.400,218.867 372.400 C 218.610 372.400,218.400 372.220,218.400 372.000 C 218.400 371.780,218.760 371.600,219.200 371.600 C 219.640 371.600,220.000 371.449,220.000 371.264 C 220.000 371.079,220.765 370.682,221.700 370.381 C 222.635 370.080,223.490 369.736,223.600 369.617 C 224.036 369.144,225.623 368.400,226.195 368.400 C 226.528 368.400,226.800 368.220,226.800 368.000 C 226.800 367.780,227.160 367.600,227.600 367.600 C 228.040 367.600,228.400 367.420,228.400 367.200 C 228.400 366.980,228.805 366.796,229.300 366.791 C 229.795 366.786,230.650 366.430,231.200 366.000 C 231.750 365.570,232.504 365.214,232.876 365.209 C 233.248 365.204,233.664 365.020,233.800 364.800 C 233.936 364.580,234.397 364.400,234.824 364.400 C 235.251 364.400,235.600 364.220,235.600 364.000 C 235.600 363.780,235.960 363.600,236.400 363.600 C 236.840 363.600,237.200 363.420,237.200 363.200 C 237.200 362.980,237.549 362.800,237.976 362.800 C 238.403 362.800,238.864 362.620,239.000 362.400 C 239.136 362.180,239.597 362.000,240.024 362.000 C 240.451 362.000,240.800 361.820,240.800 361.600 C 240.800 361.380,241.160 361.200,241.600 361.200 C 242.040 361.200,242.400 361.020,242.400 360.800 C 242.400 360.580,242.760 360.400,243.200 360.400 C 243.640 360.400,244.000 360.220,244.000 360.000 C 244.000 359.780,244.360 359.600,244.800 359.600 C 245.240 359.600,245.600 359.420,245.600 359.200 C 245.600 358.980,245.947 358.800,246.371 358.800 C 246.796 358.800,247.426 358.517,247.771 358.171 C 248.117 357.826,248.406 357.691,248.413 357.871 C 248.421 358.052,248.781 357.775,249.213 357.256 C 249.646 356.736,250.000 356.435,250.000 356.585 C 250.000 356.872,253.290 353.564,254.500 352.061 C 254.885 351.582,255.200 351.013,255.200 350.795 C 255.200 350.578,255.380 350.400,255.600 350.400 C 255.820 350.400,256.000 350.076,256.000 349.680 C 256.000 349.284,256.166 348.789,256.368 348.580 C 257.765 347.137,259.141 334.581,258.024 333.464 C 257.791 333.231,257.600 332.714,257.600 332.315 C 257.600 331.590,257.482 331.292,256.268 328.956 C 255.912 328.272,255.707 327.626,255.813 327.520 C 255.919 327.415,255.644 327.002,255.202 326.602 C 254.761 326.203,254.400 325.721,254.400 325.532 C 254.400 325.093,248.524 319.200,248.086 319.200 C 247.501 319.200,245.606 318.208,245.603 317.900 C 245.601 317.735,245.347 317.600,245.038 317.600 C 244.521 317.600,241.262 316.062,240.800 315.600 C 240.397 315.197,234.551 312.400,234.111 312.400 C 233.861 312.400,233.419 312.169,233.129 311.887 C 232.838 311.604,231.520 310.873,230.200 310.261 C 228.880 309.649,227.487 308.980,227.105 308.774 C 226.723 308.569,226.138 308.400,225.805 308.400 C 225.472 308.400,225.200 308.220,225.200 308.000 C 225.200 307.780,224.949 307.600,224.643 307.600 C 224.336 307.600,223.985 307.339,223.863 307.019 C 223.618 306.381,225.580 305.200,226.885 305.200 C 227.304 305.200,227.536 305.020,227.400 304.800 C 227.260 304.573,227.596 304.400,228.176 304.400 C 228.739 304.400,229.201 304.265,229.203 304.100 C 229.207 303.741,231.144 302.800,231.880 302.800 C 232.166 302.800,232.400 302.620,232.400 302.400 C 232.400 302.180,232.760 302.000,233.200 302.000 C 233.640 302.000,234.000 301.864,234.000 301.698 C 234.000 301.532,234.630 301.172,235.400 300.898 C 236.170 300.624,237.430 300.176,238.200 299.902 C 238.970 299.628,239.600 299.268,239.600 299.102 C 239.600 298.936,239.870 298.800,240.200 298.800 C 240.530 298.800,240.800 298.620,240.800 298.400 C 240.800 298.180,241.205 297.994,241.700 297.987 C 242.195 297.980,242.942 297.716,243.359 297.400 C 243.776 297.084,244.271 296.920,244.459 297.036 C 244.647 297.152,244.800 297.057,244.800 296.824 C 244.800 296.591,245.160 296.400,245.600 296.400 C 246.040 296.400,246.401 296.265,246.403 296.100 C 246.407 295.763,248.325 294.800,248.991 294.800 C 249.229 294.800,249.683 294.440,250.000 294.000 C 250.317 293.560,250.815 293.200,251.106 293.200 C 251.398 293.200,252.076 292.795,252.614 292.300 C 253.151 291.805,253.998 291.023,254.496 290.563 C 256.715 288.509,258.800 285.627,258.800 284.614 C 258.800 284.276,258.980 284.000,259.200 284.000 C 259.420 284.000,259.600 283.640,259.600 283.200 C 259.600 282.760,259.780 282.400,260.000 282.400 C 260.220 282.400,260.400 281.860,260.400 281.200 C 260.400 280.540,260.580 280.000,260.800 280.000 C 261.020 280.000,261.200 279.291,261.200 278.424 C 261.200 277.557,261.380 276.736,261.600 276.600 C 261.829 276.458,262.000 274.396,262.000 271.776 C 262.000 268.992,261.843 267.200,261.600 267.200 C 261.380 267.200,261.200 266.379,261.200 265.376 C 261.200 264.263,261.044 263.649,260.800 263.800 C 260.566 263.945,260.400 263.530,260.400 262.800 C 260.400 262.070,260.234 261.655,260.000 261.800 C 259.780 261.936,259.600 261.713,259.600 261.304 C 259.600 260.895,259.416 260.376,259.191 260.151 C 258.965 259.925,258.699 259.314,258.598 258.791 C 258.498 258.268,258.142 257.687,257.808 257.500 C 257.473 257.313,257.200 256.909,257.200 256.603 C 257.200 256.296,256.841 255.794,256.403 255.487 C 255.964 255.180,255.724 254.809,255.869 254.664 C 256.014 254.519,255.803 254.400,255.400 254.400 C 254.997 254.400,254.768 254.299,254.891 254.176 C 255.140 253.926,253.340 252.000,252.857 252.000 C 252.689 252.000,252.193 251.685,251.755 251.300 C 250.723 250.392,250.096 250.040,244.274 247.098 C 241.593 245.743,239.340 244.492,239.267 244.317 C 239.193 244.143,238.788 244.000,238.367 244.000 C 237.945 244.000,237.600 243.790,237.600 243.533 C 237.600 243.277,237.490 243.176,237.356 243.311 C 237.222 243.445,236.460 243.205,235.662 242.777 C 234.864 242.350,233.984 242.000,233.706 242.000 C 233.428 242.000,233.200 241.820,233.200 241.600 C 233.200 241.380,232.840 241.200,232.400 241.200 C 231.960 241.200,231.600 241.020,231.600 240.800 C 231.600 240.580,231.317 240.400,230.971 240.400 C 228.764 240.400,229.020 238.635,231.300 238.139 C 231.905 238.008,232.400 237.743,232.400 237.550 C 232.400 237.357,232.672 237.200,233.005 237.200 C 233.338 237.200,233.923 237.032,234.305 236.826 C 234.687 236.621,235.585 236.217,236.300 235.929 C 237.015 235.640,237.600 235.269,237.600 235.102 C 237.600 234.936,238.050 234.800,238.600 234.800 C 239.150 234.800,239.600 234.664,239.600 234.498 C 239.600 234.331,240.185 233.946,240.900 233.642 C 241.615 233.338,243.277 232.574,244.594 231.945 C 245.911 231.315,247.216 230.800,247.494 230.800 C 247.772 230.800,248.000 230.620,248.000 230.400 C 248.000 230.180,248.360 230.000,248.800 230.000 C 249.240 230.000,249.600 229.820,249.600 229.600 C 249.600 229.380,249.960 229.200,250.400 229.200 C 250.840 229.200,251.200 229.020,251.200 228.800 C 251.200 228.580,251.661 228.400,252.224 228.400 C 252.804 228.400,253.140 228.227,253.000 228.000 C 252.864 227.780,253.118 227.600,253.564 227.600 C 254.011 227.600,255.017 227.240,255.800 226.800 C 256.583 226.360,257.489 226.000,257.812 226.000 C 258.135 226.000,258.400 225.840,258.400 225.643 C 258.400 225.447,258.895 225.168,259.500 225.023 C 260.105 224.878,261.714 224.228,263.075 223.579 C 264.436 222.931,265.831 222.400,266.175 222.400 C 266.519 222.400,266.800 222.220,266.800 222.000 C 266.800 221.780,267.160 221.600,267.600 221.600 C 268.040 221.600,268.400 221.462,268.400 221.293 C 268.400 220.939,272.847 218.949,273.300 219.100 C 273.465 219.155,273.600 219.020,273.600 218.800 C 273.600 218.580,273.960 218.400,274.400 218.400 C 274.840 218.400,275.200 218.220,275.200 218.000 C 275.200 217.780,275.560 217.600,276.000 217.600 C 276.440 217.600,276.800 217.442,276.800 217.249 C 276.800 217.055,277.340 216.673,278.000 216.400 C 278.660 216.127,279.200 215.775,279.200 215.619 C 279.200 215.463,279.692 215.080,280.292 214.768 C 283.682 213.006,291.600 203.162,291.600 200.709 C 291.600 200.099,291.780 199.600,292.000 199.600 C 292.220 199.600,292.400 199.150,292.400 198.600 C 292.400 198.050,292.580 197.600,292.800 197.600 C 293.020 197.600,293.200 197.161,293.200 196.624 C 293.200 196.087,293.380 195.536,293.600 195.400 C 293.820 195.264,294.000 194.353,294.000 193.376 C 294.000 192.399,294.180 191.600,294.400 191.600 C 294.657 191.600,294.800 187.725,294.800 180.776 C 294.800 173.663,294.937 170.038,295.200 170.200 C 295.459 170.360,295.600 168.471,295.600 164.824 C 295.600 161.341,295.448 159.200,295.200 159.200 C 294.971 159.200,294.800 158.000,294.800 156.400 C 294.800 154.800,294.629 153.600,294.400 153.600 C 294.180 153.600,294.000 153.240,294.000 152.800 C 294.000 152.360,293.820 152.000,293.600 152.000 C 293.380 152.000,293.200 151.561,293.200 151.024 C 293.200 150.487,293.020 149.936,292.800 149.800 C 292.580 149.664,292.400 149.203,292.400 148.776 C 292.400 148.349,292.261 148.000,292.091 148.000 C 291.921 148.000,291.434 147.353,291.008 146.563 C 290.142 144.954,287.417 142.000,286.800 142.000 C 286.580 142.000,286.442 141.865,286.493 141.700 C 286.635 141.240,285.088 139.600,284.511 139.600 C 284.230 139.600,284.000 139.432,284.000 139.227 C 284.000 139.022,283.634 138.738,283.187 138.596 C 282.740 138.454,281.938 137.902,281.405 137.369 C 280.872 136.836,280.169 136.400,279.842 136.400 C 279.515 136.400,279.136 136.220,279.000 136.000 C 278.864 135.780,278.393 135.600,277.953 135.600 C 277.513 135.600,277.240 135.458,277.348 135.285 C 277.455 135.112,277.070 134.931,276.494 134.883 C 275.917 134.835,275.345 134.662,275.222 134.498 C 274.702 133.801,273.110 133.200,271.782 133.200 C 270.931 133.200,270.453 133.038,270.600 132.800 C 270.749 132.558,270.204 132.400,269.224 132.400 C 268.331 132.400,267.600 132.214,267.600 131.986 C 267.600 131.714,264.807 131.588,259.400 131.616 C 254.672 131.641,251.200 131.816,251.200 132.030 C 251.200 132.233,250.581 132.400,249.824 132.400 C 249.067 132.400,248.336 132.580,248.200 132.800 C 248.064 133.020,247.440 133.200,246.814 133.200 C 245.711 133.200,242.337 134.693,242.067 135.300 C 241.993 135.465,241.532 135.600,241.042 135.600 C 240.552 135.600,239.764 135.960,239.292 136.400 C 238.820 136.840,238.196 137.200,237.905 137.200 C 237.614 137.200,237.117 137.560,236.800 138.000 C 236.483 138.440,236.017 138.800,235.765 138.800 C 235.362 138.800,232.897 140.943,229.500 144.247 C 228.895 144.836,228.400 145.561,228.400 145.859 C 228.400 146.156,228.252 146.400,228.070 146.400 C 227.722 146.400,225.593 150.762,225.444 151.781 C 225.396 152.109,225.231 152.502,225.078 152.655 C 224.925 152.808,224.800 153.433,224.800 154.043 C 224.800 154.653,224.620 155.264,224.400 155.400 C 223.906 155.706,223.856 166.264,224.347 166.568 C 224.539 166.686,224.809 167.496,224.948 168.368 C 225.088 169.240,225.411 170.459,225.667 171.077 C 225.923 171.694,226.153 172.290,226.177 172.400 C 226.250 172.733,227.762 174.986,228.059 175.204 C 228.211 175.316,228.395 175.663,228.468 175.975 C 228.656 176.784,235.084 183.200,235.706 183.200 C 235.991 183.200,236.476 183.550,236.785 183.979 C 237.093 184.407,237.469 184.681,237.621 184.587 C 237.772 184.494,238.414 184.863,239.048 185.408 C 239.682 185.953,240.590 186.399,241.067 186.400 C 241.543 186.400,241.993 186.535,242.067 186.700 C 242.283 187.186,245.691 188.725,247.100 188.972 C 250.211 189.518,251.027 189.722,251.452 190.060 C 251.701 190.257,254.896 190.425,258.552 190.433 C 262.209 190.441,265.200 190.548,265.200 190.671 C 265.200 191.162,262.522 193.228,261.300 193.680 C 260.585 193.944,260.000 194.305,260.000 194.480 C 260.000 194.656,259.717 194.800,259.371 194.800 C 259.026 194.800,258.471 195.072,258.139 195.404 C 257.807 195.736,257.370 195.905,257.168 195.780 C 256.965 195.655,256.800 195.743,256.800 195.976 C 256.800 196.209,256.440 196.400,256.000 196.400 C 255.560 196.400,255.200 196.580,255.200 196.800 C 255.200 197.020,254.840 197.200,254.400 197.200 C 253.960 197.200,253.600 197.380,253.600 197.600 C 253.600 197.820,253.240 198.000,252.800 198.000 C 252.360 198.000,252.000 198.158,252.000 198.351 C 252.000 198.545,251.415 198.940,250.700 199.229 C 249.985 199.518,249.310 199.857,249.200 199.981 C 249.090 200.106,248.010 200.655,246.800 201.200 C 245.590 201.745,244.510 202.303,244.400 202.440 C 244.075 202.843,241.600 204.041,241.600 203.795 C 241.600 203.670,241.206 203.936,240.725 204.384 C 240.243 204.833,239.510 205.200,239.096 205.200 C 238.682 205.200,238.071 205.472,237.739 205.804 C 237.407 206.136,236.942 206.288,236.706 206.142 C 236.451 205.985,236.393 206.064,236.562 206.338 C 236.731 206.612,236.593 206.800,236.224 206.800 C 235.881 206.800,235.600 206.980,235.600 207.200 C 235.600 207.420,235.252 207.600,234.826 207.600 C 234.400 207.600,230.077 209.596,225.218 212.036 C 214.469 217.433,215.239 216.402,214.915 225.824 C 214.779 229.787,214.512 232.800,214.296 232.800 C 213.311 232.800,185.641 218.568,184.400 217.422 C 182.749 215.899,168.852 208.841,168.044 209.115 C 167.706 209.230,167.598 209.127,167.768 208.852 C 167.948 208.560,167.676 208.400,167.000 208.400 C 166.424 208.400,166.052 208.239,166.173 208.043 C 166.295 207.847,165.585 207.448,164.597 207.156 C 163.609 206.864,162.800 206.485,162.800 206.313 C 162.800 206.141,162.519 206.000,162.176 206.000 C 161.833 206.000,161.667 205.816,161.806 205.590 C 161.945 205.365,161.911 205.221,161.730 205.271 C 161.209 205.415,158.400 204.275,158.400 203.920 C 158.400 203.744,158.151 203.600,157.846 203.600 C 157.162 203.600,155.149 202.584,155.379 202.355 C 155.470 202.263,154.478 201.741,153.174 201.194 C 151.870 200.647,150.803 200.065,150.802 199.900 C 150.801 199.735,150.474 199.600,150.075 199.600 C 149.677 199.600,149.002 199.275,148.575 198.878 C 147.753 198.111,147.512 198.000,146.675 198.000 C 146.387 198.000,145.716 197.595,145.185 197.100 C 144.653 196.605,144.170 196.245,144.109 196.300 C 143.763 196.617,142.839 196.296,142.092 195.600 C 141.620 195.160,140.956 194.800,140.617 194.800 C 140.278 194.800,140.000 194.620,140.000 194.400 C 140.000 194.180,139.702 194.000,139.338 194.000 C 138.496 194.000,134.800 191.271,134.800 190.649 C 134.800 190.535,137.365 190.423,140.500 190.401 C 146.396 190.359,147.778 190.276,148.800 189.899 C 149.630 189.593,152.830 188.813,153.800 188.680 C 154.795 188.543,159.352 186.344,159.534 185.912 C 159.608 185.738,159.818 185.688,160.002 185.801 C 160.185 185.915,160.601 185.742,160.925 185.418 C 161.249 185.094,161.750 184.777,162.039 184.714 C 162.328 184.651,162.988 184.192,163.508 183.692 C 164.027 183.193,164.648 182.906,164.888 183.054 C 165.149 183.215,165.209 183.138,165.038 182.862 C 164.881 182.608,164.952 182.400,165.196 182.400 C 165.694 182.400,171.200 176.937,171.200 176.443 C 171.200 176.268,171.650 175.601,172.200 174.962 C 172.749 174.323,173.199 173.575,173.200 173.300 C 173.200 173.025,173.360 172.800,173.556 172.800 C 173.751 172.800,174.216 171.585,174.590 170.100 C 174.963 168.615,175.433 167.087,175.634 166.705 C 176.142 165.742,176.110 155.200,175.600 155.200 C 175.380 155.200,175.200 154.788,175.200 154.285 C 175.200 153.136,173.870 149.310,173.258 148.698 C 173.006 148.446,172.800 148.006,172.800 147.720 C 172.800 147.434,172.665 147.194,172.500 147.187 C 172.335 147.181,171.854 146.701,171.432 146.122 C 171.009 145.542,170.887 145.207,171.161 145.376 C 171.535 145.607,171.528 145.474,171.133 144.842 C 170.844 144.379,170.485 144.000,170.335 144.000 C 170.185 144.000,168.858 142.830,167.385 141.400 C 165.912 139.970,164.498 138.800,164.242 138.800 C 163.986 138.800,163.524 138.450,163.215 138.021 C 162.907 137.593,162.531 137.319,162.379 137.413 C 162.228 137.506,161.586 137.137,160.952 136.592 C 160.318 136.047,159.593 135.601,159.341 135.600 C 159.088 135.600,157.855 135.060,156.600 134.400 C 155.345 133.740,153.707 133.200,152.959 133.200 C 152.212 133.200,151.600 133.020,151.600 132.800 C 151.600 132.580,150.970 132.400,150.200 132.400 C 149.430 132.400,148.800 132.233,148.800 132.030 C 148.800 131.816,145.328 131.641,140.600 131.616 C 135.193 131.588,132.400 131.714,132.400 131.986 M152.520 149.848 C 155.803 151.511,157.164 154.562,155.925 157.481 C 155.265 159.038,153.183 161.200,152.345 161.200 C 151.961 161.200,151.536 161.380,151.400 161.600 C 151.264 161.820,150.634 162.000,150.000 162.000 C 149.366 162.000,148.736 161.820,148.600 161.600 C 148.464 161.380,148.028 161.200,147.631 161.200 C 146.751 161.200,145.024 159.531,144.204 157.888 C 141.717 152.903,147.504 147.308,152.520 149.848 M253.603 150.555 C 257.088 152.861,257.237 157.613,253.905 160.142 C 248.002 164.622,240.528 157.076,245.350 151.505 C 247.527 148.990,250.689 148.626,253.603 150.555 M188.625 246.149 C 189.711 246.670,191.500 247.499,192.600 247.990 C 193.700 248.481,195.680 249.385,197.000 249.999 C 198.320 250.613,200.390 251.563,201.600 252.111 C 202.810 252.659,205.060 253.689,206.600 254.399 C 208.140 255.109,210.371 256.122,211.558 256.649 C 212.745 257.176,214.165 258.056,214.713 258.604 C 215.261 259.152,215.955 259.600,216.255 259.600 C 216.555 259.600,216.800 259.780,216.800 260.000 C 216.800 260.220,217.160 260.400,217.600 260.400 C 218.040 260.400,218.400 260.580,218.400 260.800 C 218.400 261.020,218.760 261.200,219.200 261.200 C 219.640 261.200,220.003 261.425,220.006 261.700 C 220.010 262.033,220.142 262.000,220.400 261.600 C 220.613 261.270,220.792 261.180,220.797 261.400 C 220.807 261.838,222.650 262.800,223.480 262.800 C 223.766 262.800,224.000 262.980,224.000 263.200 C 224.000 263.420,224.345 263.600,224.767 263.600 C 225.188 263.600,225.593 263.743,225.667 263.919 C 225.815 264.274,228.594 265.605,230.900 266.427 C 231.725 266.720,232.400 267.105,232.400 267.280 C 232.400 267.456,232.861 267.600,233.424 267.600 C 234.004 267.600,234.340 267.773,234.200 268.000 C 234.064 268.220,234.323 268.400,234.776 268.400 C 235.229 268.400,235.600 268.580,235.600 268.800 C 235.600 269.020,235.960 269.200,236.400 269.200 C 236.840 269.200,237.200 269.391,237.200 269.624 C 237.200 269.857,237.357 269.950,237.548 269.832 C 238.037 269.530,239.600 270.964,239.600 271.714 C 239.600 272.054,239.825 272.438,240.100 272.567 C 240.500 272.753,240.500 272.847,240.100 273.033 C 239.825 273.162,239.600 273.571,239.600 273.944 C 239.600 274.645,236.655 276.800,235.696 276.800 C 235.397 276.800,235.264 276.980,235.400 277.200 C 235.540 277.427,235.204 277.600,234.624 277.600 C 234.061 277.600,233.600 277.780,233.600 278.000 C 233.600 278.220,233.317 278.400,232.972 278.400 C 232.627 278.400,231.519 278.968,230.510 279.662 C 229.502 280.356,228.825 280.671,229.007 280.362 C 229.189 280.053,228.947 280.143,228.469 280.562 C 227.991 280.981,227.600 281.193,227.600 281.033 C 227.600 280.874,227.315 281.027,226.968 281.375 C 226.620 281.723,226.170 281.905,225.968 281.780 C 225.765 281.655,225.600 281.743,225.600 281.976 C 225.600 282.209,225.240 282.400,224.800 282.400 C 224.360 282.400,224.000 282.580,224.000 282.800 C 224.000 283.020,223.629 283.200,223.176 283.200 C 222.723 283.200,222.464 283.380,222.600 283.600 C 222.736 283.820,222.567 284.000,222.224 284.000 C 221.881 284.000,221.597 284.225,221.594 284.500 C 221.590 284.833,221.458 284.800,221.200 284.400 C 220.942 284.000,220.810 283.967,220.806 284.300 C 220.803 284.575,220.530 284.800,220.200 284.800 C 219.870 284.800,219.600 284.936,219.600 285.102 C 219.600 285.269,219.060 285.629,218.400 285.902 C 217.740 286.176,216.673 286.618,216.029 286.885 C 215.385 287.152,214.945 287.512,215.052 287.685 C 215.160 287.858,214.898 288.000,214.470 288.000 C 214.043 288.000,213.610 288.315,213.508 288.700 C 213.394 289.127,210.719 290.728,206.658 292.800 L 199.995 296.200 193.368 292.856 C 189.723 291.016,186.629 289.216,186.493 288.856 C 186.227 288.153,185.141 286.935,184.929 287.100 C 184.534 287.407,183.645 287.102,182.892 286.400 C 182.420 285.960,181.666 285.600,181.217 285.600 C 180.768 285.600,180.400 285.420,180.400 285.200 C 180.400 284.980,180.147 284.800,179.838 284.800 C 179.081 284.800,176.000 283.135,176.000 282.726 C 176.000 282.547,175.728 282.400,175.395 282.400 C 174.697 282.400,173.138 281.588,172.706 281.000 C 172.544 280.780,172.409 280.763,172.406 280.962 C 172.403 281.161,172.085 281.071,171.700 280.762 C 170.607 279.884,169.266 279.200,168.639 279.200 C 168.324 279.200,168.007 279.056,167.933 278.879 C 167.860 278.703,166.450 277.898,164.800 277.090 C 163.150 276.283,161.464 275.357,161.053 275.032 C 159.639 273.917,160.376 270.000,162.000 270.000 C 162.251 270.000,162.729 269.728,163.061 269.396 C 163.393 269.064,163.830 268.895,164.032 269.020 C 164.235 269.145,164.401 269.102,164.403 268.924 C 164.407 268.546,166.320 267.600,167.080 267.600 C 167.366 267.600,167.600 267.420,167.600 267.200 C 167.600 266.980,167.845 266.800,168.144 266.800 C 168.443 266.800,169.748 266.275,171.044 265.633 C 172.340 264.991,173.985 264.227,174.700 263.935 C 175.415 263.643,176.000 263.269,176.000 263.102 C 176.000 262.936,176.253 262.800,176.562 262.800 C 177.047 262.800,178.320 262.248,181.295 260.750 C 181.677 260.557,182.262 260.400,182.595 260.400 C 182.928 260.400,183.200 260.220,183.200 260.000 C 183.200 259.780,183.494 259.600,183.853 259.600 C 185.749 259.600,186.111 258.184,185.827 251.895 C 185.490 244.459,185.418 244.608,188.625 246.149 M204.663 318.230 C 211.746 321.521,212.800 322.087,212.800 322.600 C 212.800 323.093,216.632 325.200,217.528 325.200 C 217.774 325.200,218.617 325.560,219.400 326.000 C 220.183 326.440,221.179 326.800,221.612 326.800 C 222.045 326.800,222.400 326.980,222.400 327.200 C 222.400 327.420,222.760 327.600,223.200 327.600 C 223.640 327.600,224.000 327.780,224.000 328.000 C 224.000 328.220,224.360 328.400,224.800 328.400 C 225.240 328.400,225.601 328.535,225.603 328.700 C 225.607 329.106,227.586 330.000,228.480 330.000 C 228.876 330.000,229.200 330.180,229.200 330.400 C 229.200 330.620,229.560 330.800,230.000 330.800 C 230.440 330.800,230.800 330.980,230.800 331.200 C 230.800 331.420,231.160 331.600,231.600 331.600 C 232.040 331.600,232.400 331.780,232.400 332.000 C 232.400 332.220,232.760 332.400,233.200 332.400 C 233.640 332.400,234.000 332.580,234.000 332.800 C 234.000 333.020,234.360 333.200,234.800 333.200 C 235.240 333.200,235.600 333.380,235.600 333.600 C 235.600 333.820,235.872 334.000,236.205 334.000 C 238.315 334.000,241.200 337.148,241.200 339.450 C 241.200 340.413,241.020 341.200,240.800 341.200 C 240.580 341.200,240.400 341.393,240.400 341.629 C 240.400 342.703,229.955 348.800,228.115 348.800 C 227.832 348.800,227.600 348.946,227.600 349.125 C 227.600 349.304,226.970 349.698,226.200 350.000 C 225.430 350.302,224.800 350.696,224.800 350.875 C 224.800 351.054,224.440 351.200,224.000 351.200 C 223.560 351.200,223.200 351.380,223.200 351.600 C 223.200 351.820,222.840 352.000,222.400 352.000 C 221.960 352.000,221.600 352.180,221.600 352.400 C 221.600 352.620,221.240 352.800,220.800 352.800 C 220.360 352.800,220.000 352.980,220.000 353.200 C 220.000 353.420,219.640 353.600,219.200 353.600 C 218.760 353.600,218.400 353.780,218.400 354.000 C 218.400 354.220,218.040 354.400,217.600 354.400 C 217.160 354.400,216.799 354.535,216.797 354.700 C 216.793 355.059,214.856 356.000,214.120 356.000 C 213.834 356.000,213.600 356.180,213.600 356.400 C 213.600 356.620,213.326 356.800,212.990 356.800 C 212.000 356.800,211.582 358.624,211.321 364.084 C 211.186 366.914,210.946 369.309,210.789 369.407 C 210.334 369.688,189.065 358.814,188.390 357.955 C 187.707 357.085,185.800 356.000,184.954 356.000 C 184.649 356.000,184.400 355.820,184.400 355.600 C 184.400 355.380,184.130 355.200,183.800 355.200 C 183.470 355.200,183.200 355.020,183.200 354.800 C 183.200 354.580,182.966 354.400,182.680 354.400 C 181.944 354.400,180.007 353.459,180.003 353.100 C 180.001 352.935,179.766 352.800,179.480 352.800 C 178.744 352.800,176.807 351.859,176.803 351.500 C 176.801 351.335,176.440 351.200,176.000 351.200 C 175.560 351.200,175.200 351.054,175.200 350.875 C 175.200 350.696,174.570 350.302,173.800 350.000 C 173.030 349.698,172.400 349.304,172.400 349.125 C 172.400 348.946,171.939 348.800,171.376 348.800 C 170.796 348.800,170.460 348.627,170.600 348.400 C 170.736 348.180,170.581 348.000,170.255 348.000 C 169.555 348.000,163.237 344.839,162.471 344.106 C 162.181 343.828,161.726 343.600,161.460 343.600 C 160.909 343.600,159.600 342.189,159.600 341.595 C 159.600 341.378,159.420 341.200,159.200 341.200 C 158.665 341.200,158.689 338.556,159.232 337.540 C 159.939 336.219,161.306 334.800,161.872 334.800 C 162.162 334.800,162.400 334.620,162.400 334.400 C 162.400 334.180,162.850 334.000,163.400 334.000 C 163.950 334.000,164.401 333.865,164.403 333.700 C 164.407 333.341,166.344 332.400,167.080 332.400 C 167.366 332.400,167.601 332.265,167.603 332.100 C 167.607 331.741,169.544 330.800,170.280 330.800 C 170.566 330.800,170.800 330.620,170.800 330.400 C 170.800 330.180,171.072 330.000,171.404 330.000 C 172.161 330.000,175.753 328.349,175.933 327.919 C 176.007 327.743,176.412 327.600,176.833 327.600 C 177.255 327.600,177.600 327.420,177.600 327.200 C 177.600 326.980,177.950 326.800,178.377 326.800 C 178.805 326.800,179.750 326.457,180.477 326.039 C 181.205 325.620,182.373 325.159,183.072 325.013 C 183.772 324.868,184.558 324.492,184.818 324.179 C 185.078 323.865,185.435 323.698,185.611 323.807 C 185.787 323.915,186.526 323.373,187.253 322.602 C 187.981 321.831,188.728 321.200,188.913 321.200 C 189.229 321.200,191.255 320.290,197.000 317.567 C 200.111 316.093,200.056 316.088,204.663 318.230 " stroke="none" fill="#df5f87" fill-rule="evenodd"></path><path id="path1" d="M209.600 15.065 C 209.600 15.211,210.026 16.066,210.547 16.965 C 217.513 28.986,212.866 44.816,200.337 51.753 C 195.224 54.584,189.944 55.280,182.000 54.171 L 180.200 53.920 182.000 55.793 C 192.859 67.096,211.905 65.470,220.881 52.475 C 227.717 42.578,226.530 28.580,218.147 20.244 C 215.390 17.503,209.600 13.994,209.600 15.065 M87.000 38.851 C 81.057 41.017,78.355 42.016,77.400 42.399 C 76.960 42.575,75.970 42.936,75.200 43.200 C 74.430 43.464,73.440 43.824,73.000 44.000 C 72.560 44.176,71.570 44.536,70.800 44.800 C 70.030 45.064,69.040 45.424,68.600 45.600 C 68.160 45.776,67.170 46.136,66.400 46.400 C 65.630 46.664,64.640 47.024,64.200 47.200 C 63.760 47.376,62.770 47.736,62.000 48.000 C 61.230 48.264,60.240 48.625,59.800 48.801 C 57.706 49.641,48.856 52.835,40.400 55.804 C 38.750 56.383,37.040 57.007,36.600 57.189 C 36.160 57.372,34.765 57.900,33.500 58.361 C 28.376 60.230,26.810 60.906,26.367 61.440 C 26.111 61.748,25.570 62.000,25.164 62.000 C 24.695 62.000,24.504 62.205,24.640 62.560 C 24.758 62.867,24.662 63.238,24.427 63.383 C 24.192 63.528,24.000 63.997,24.000 64.424 C 24.000 64.851,23.820 65.200,23.600 65.200 C 23.380 65.200,23.200 65.549,23.200 65.976 C 23.200 66.403,23.020 66.864,22.800 67.000 C 22.278 67.322,22.278 74.278,22.800 74.600 C 23.020 74.736,23.200 75.427,23.200 76.135 C 23.200 76.965,23.485 77.629,24.000 78.000 C 24.440 78.317,24.800 78.815,24.800 79.106 C 24.800 79.398,25.205 80.059,25.700 80.575 C 26.195 81.092,27.110 82.074,27.734 82.757 C 28.358 83.441,29.213 84.000,29.634 84.000 C 30.055 84.000,30.401 84.135,30.403 84.300 C 30.409 84.890,32.592 85.600,34.400 85.600 C 35.412 85.600,36.437 85.797,36.677 86.037 C 36.993 86.353,37.340 86.353,37.931 86.037 C 38.380 85.797,39.392 85.600,40.179 85.600 C 40.967 85.600,41.968 85.420,42.405 85.200 C 42.842 84.980,43.558 84.620,43.995 84.400 C 44.432 84.180,45.152 84.000,45.595 84.000 C 46.038 84.000,46.400 83.820,46.400 83.600 C 46.400 83.380,46.776 83.200,47.235 83.200 C 47.694 83.200,48.819 82.664,49.735 82.010 C 51.373 80.839,52.639 80.329,63.800 76.353 C 66.880 75.255,70.345 74.007,71.500 73.579 C 72.655 73.150,74.635 72.422,75.900 71.961 C 77.165 71.500,78.560 70.976,79.000 70.798 C 80.701 70.110,83.477 69.100,85.200 68.542 C 86.190 68.222,87.360 67.807,87.800 67.620 C 88.240 67.434,89.230 67.064,90.000 66.800 C 90.770 66.536,91.760 66.175,92.200 65.999 C 92.640 65.822,94.035 65.300,95.300 64.839 C 96.565 64.378,98.545 63.648,99.700 63.218 C 100.855 62.789,103.458 61.868,105.485 61.174 C 110.469 59.465,110.678 59.291,110.096 57.347 C 109.842 56.496,109.412 54.810,109.142 53.600 C 108.657 51.427,107.843 50.000,107.087 50.000 C 106.520 50.000,102.209 47.763,101.154 46.921 C 98.358 44.690,95.807 41.981,94.392 39.740 C 92.496 36.738,92.720 36.765,87.000 38.851 M305.469 39.900 C 303.555 42.822,299.784 46.800,298.929 46.800 C 298.638 46.800,298.400 46.961,298.400 47.158 C 298.400 47.515,293.579 50.000,292.887 50.000 C 292.123 50.000,291.313 51.492,290.823 53.800 C 290.543 55.120,290.153 56.722,289.957 57.360 C 289.340 59.363,289.177 59.237,295.200 61.395 C 296.850 61.986,299.145 62.814,300.300 63.235 C 301.455 63.656,303.390 64.360,304.600 64.800 C 310.259 66.858,311.455 67.301,312.200 67.619 C 312.640 67.806,313.810 68.227,314.800 68.553 C 315.790 68.880,318.130 69.717,320.000 70.414 C 321.870 71.111,325.290 72.363,327.600 73.198 C 332.908 75.115,340.794 77.975,345.200 79.580 C 347.070 80.262,349.349 81.355,350.265 82.010 C 351.181 82.664,352.306 83.200,352.765 83.200 C 353.224 83.200,353.600 83.380,353.600 83.600 C 353.600 83.820,354.020 84.000,354.533 84.000 C 355.047 84.000,355.590 84.123,355.741 84.274 C 356.230 84.763,358.970 85.588,360.126 85.594 C 360.746 85.597,361.620 85.797,362.069 86.037 C 362.660 86.353,363.007 86.353,363.323 86.037 C 363.563 85.797,364.606 85.600,365.639 85.600 C 368.746 85.600,375.200 81.382,375.200 79.352 C 375.200 79.030,375.560 78.380,376.000 77.908 C 376.440 77.436,376.800 76.543,376.800 75.925 C 376.800 75.306,376.980 74.800,377.200 74.800 C 377.440 74.800,377.600 73.200,377.600 70.800 C 377.600 68.400,377.440 66.800,377.200 66.800 C 376.980 66.800,376.800 66.440,376.800 66.000 C 376.800 65.560,376.620 65.200,376.400 65.200 C 376.180 65.200,376.000 64.750,376.000 64.200 C 376.000 63.650,375.820 63.200,375.600 63.200 C 375.380 63.200,375.200 62.951,375.200 62.648 C 375.200 62.077,369.807 59.200,368.737 59.200 C 368.405 59.200,368.016 59.082,367.872 58.938 C 367.728 58.794,366.213 58.187,364.505 57.589 C 358.498 55.484,345.371 50.734,342.800 49.734 C 341.370 49.178,339.390 48.461,338.400 48.141 C 337.410 47.821,336.240 47.407,335.800 47.220 C 335.360 47.034,334.370 46.664,333.600 46.400 C 331.903 45.817,330.918 45.443,329.600 44.880 C 329.050 44.645,327.430 44.069,326.000 43.600 C 324.570 43.131,323.040 42.597,322.600 42.413 C 319.551 41.137,308.364 37.200,307.788 37.200 C 307.486 37.200,306.443 38.415,305.469 39.900 M119.200 85.439 C 118.210 85.769,117.040 86.192,116.600 86.379 C 116.160 86.566,115.170 86.936,114.400 87.200 C 113.630 87.464,112.640 87.825,112.200 88.001 C 111.449 88.302,109.909 88.870,104.600 90.800 C 100.460 92.306,98.196 93.125,93.000 94.996 C 79.287 99.936,78.138 100.412,76.953 101.649 C 75.555 103.108,74.814 105.255,74.806 107.867 C 74.802 109.151,74.611 110.003,74.300 110.117 C 73.900 110.263,73.900 110.406,74.300 110.830 C 74.575 111.121,74.800 112.224,74.800 113.280 C 74.800 114.336,74.980 115.200,75.200 115.200 C 75.420 115.200,75.600 115.560,75.600 116.000 C 75.600 116.440,75.780 116.800,76.000 116.800 C 76.220 116.800,76.400 117.051,76.400 117.357 C 76.400 119.214,81.945 123.426,85.400 124.193 C 87.845 124.736,91.902 124.883,92.176 124.438 C 92.325 124.197,92.889 124.000,93.429 124.000 C 94.375 124.000,94.741 123.872,96.695 122.862 C 97.187 122.608,97.941 122.400,98.371 122.400 C 98.801 122.400,99.242 122.256,99.351 122.079 C 99.460 121.903,100.461 121.510,101.575 121.207 C 102.689 120.904,103.600 120.508,103.600 120.328 C 103.600 120.147,104.039 120.000,104.576 120.000 C 105.113 120.000,105.664 119.820,105.800 119.600 C 105.936 119.380,106.487 119.200,107.024 119.200 C 107.561 119.200,108.000 119.020,108.000 118.800 C 108.000 118.580,108.362 118.400,108.805 118.400 C 109.248 118.400,109.968 118.220,110.405 118.000 C 110.842 117.780,111.558 117.420,111.995 117.200 C 112.432 116.980,113.152 116.800,113.595 116.800 C 114.038 116.800,114.400 116.620,114.400 116.400 C 114.400 116.180,114.839 116.000,115.376 116.000 C 115.913 116.000,116.464 115.820,116.600 115.600 C 116.736 115.380,117.199 115.200,117.629 115.200 C 118.059 115.200,118.723 115.041,119.105 114.847 C 119.487 114.652,120.340 114.271,121.000 114.000 C 121.660 113.729,122.513 113.348,122.895 113.153 C 123.277 112.959,123.952 112.800,124.395 112.800 C 124.838 112.800,125.200 112.620,125.200 112.400 C 125.200 112.180,125.740 112.000,126.400 112.000 C 127.060 112.000,127.600 111.820,127.600 111.600 C 127.600 111.380,127.960 111.200,128.400 111.200 C 128.840 111.200,129.200 111.020,129.200 110.800 C 129.200 110.580,129.740 110.400,130.400 110.400 C 131.060 110.400,131.600 110.220,131.600 110.000 C 131.600 109.780,132.140 109.600,132.800 109.600 C 133.460 109.600,134.000 109.461,134.000 109.291 C 134.000 108.969,137.176 108.000,138.649 107.873 C 139.891 107.766,139.468 106.995,136.414 103.800 C 134.111 101.390,129.629 96.281,128.703 95.008 C 128.540 94.784,127.684 93.659,126.801 92.509 C 125.918 91.358,124.377 89.153,123.378 87.609 C 122.379 86.064,121.435 84.809,121.281 84.819 C 121.126 84.830,120.190 85.108,119.200 85.439 M276.615 87.661 C 272.722 93.516,269.191 97.880,263.700 103.624 C 260.064 107.427,260.156 107.956,264.570 108.673 C 265.357 108.800,266.000 109.061,266.000 109.252 C 266.000 109.444,266.540 109.600,267.200 109.600 C 267.860 109.600,268.400 109.780,268.400 110.000 C 268.400 110.220,268.940 110.400,269.600 110.400 C 270.260 110.400,270.800 110.580,270.800 110.800 C 270.800 111.020,271.160 111.200,271.600 111.200 C 272.040 111.200,272.400 111.380,272.400 111.600 C 272.400 111.820,272.940 112.000,273.600 112.000 C 274.260 112.000,274.800 112.180,274.800 112.400 C 274.800 112.620,275.239 112.800,275.776 112.800 C 276.313 112.800,276.864 112.980,277.000 113.200 C 277.136 113.420,277.687 113.600,278.224 113.600 C 278.761 113.600,279.200 113.780,279.200 114.000 C 279.200 114.220,279.549 114.400,279.976 114.400 C 280.403 114.400,280.864 114.580,281.000 114.800 C 281.136 115.020,281.687 115.200,282.224 115.200 C 282.761 115.200,283.200 115.380,283.200 115.600 C 283.200 115.820,283.740 116.000,284.400 116.000 C 285.060 116.000,285.600 116.180,285.600 116.400 C 285.600 116.620,285.962 116.800,286.405 116.800 C 286.848 116.800,287.568 116.980,288.005 117.200 C 288.442 117.420,289.158 117.780,289.595 118.000 C 290.032 118.220,290.752 118.400,291.195 118.400 C 291.638 118.400,292.000 118.580,292.000 118.800 C 292.000 119.020,292.439 119.200,292.976 119.200 C 293.513 119.200,294.064 119.380,294.200 119.600 C 294.336 119.820,294.799 120.000,295.229 120.000 C 295.659 120.000,296.323 120.159,296.705 120.353 C 297.087 120.548,297.940 120.929,298.600 121.200 C 299.260 121.471,300.113 121.852,300.495 122.047 C 300.877 122.241,301.516 122.400,301.915 122.400 C 302.314 122.400,302.811 122.549,303.020 122.730 C 303.229 122.912,304.210 123.290,305.200 123.569 C 306.190 123.849,307.288 124.225,307.640 124.405 C 308.344 124.764,312.707 124.637,314.600 124.202 C 319.940 122.975,325.200 117.391,325.200 112.950 C 325.200 111.987,325.380 111.200,325.600 111.200 C 325.820 111.200,326.000 110.930,326.000 110.600 C 326.000 110.270,325.820 110.000,325.600 110.000 C 325.380 110.000,325.198 109.145,325.196 108.100 C 325.182 102.410,323.776 100.859,316.400 98.404 C 315.850 98.221,313.960 97.540,312.200 96.890 C 310.440 96.240,306.390 94.765,303.200 93.613 C 290.422 88.996,288.569 88.322,287.800 88.008 C 287.360 87.828,286.370 87.464,285.600 87.200 C 284.830 86.936,283.840 86.566,283.400 86.380 C 282.578 86.031,278.873 84.800,278.645 84.800 C 278.575 84.800,277.661 86.087,276.615 87.661 M225.600 95.200 C 225.600 95.420,225.240 95.600,224.800 95.600 C 224.360 95.600,224.000 95.780,224.000 96.000 C 224.000 96.220,223.640 96.400,223.200 96.400 C 222.760 96.400,222.400 96.580,222.400 96.800 C 222.400 97.020,222.040 97.200,221.600 97.200 C 221.160 97.200,220.800 97.380,220.800 97.600 C 220.800 97.820,220.469 98.000,220.064 98.000 C 218.459 98.000,218.274 99.511,217.956 115.181 C 217.789 123.421,217.742 130.306,217.850 130.481 C 218.135 130.942,221.107 130.874,221.400 130.400 C 221.536 130.180,222.087 130.000,222.624 130.000 C 223.161 130.000,223.600 129.820,223.600 129.600 C 223.600 129.380,224.063 129.200,224.629 129.200 C 226.482 129.200,226.593 128.718,226.703 120.200 C 226.760 115.800,226.916 108.285,227.050 103.500 C 227.293 94.830,227.291 94.800,226.447 94.800 C 225.981 94.800,225.600 94.980,225.600 95.200 M210.929 256.662 C 211.300 257.033,214.400 258.397,214.400 258.189 C 214.400 257.981,211.350 256.400,210.949 256.400 C 210.794 256.400,210.785 256.518,210.929 256.662 M209.498 290.903 C 208.232 291.577,207.261 292.194,207.340 292.273 C 207.472 292.406,211.967 290.166,212.362 289.771 C 212.831 289.303,211.561 289.804,209.498 290.903 M210.846 368.343 C 210.811 369.068,210.638 369.224,210.100 369.019 C 209.539 368.805,209.499 368.852,209.900 369.256 C 210.557 369.918,211.349 369.173,211.084 368.142 C 210.933 367.556,210.883 367.599,210.846 368.343 M205.400 381.956 C 205.620 382.177,206.520 382.657,207.400 383.021 C 209.490 383.887,208.913 383.301,206.705 382.315 C 205.767 381.896,205.180 381.735,205.400 381.956 " stroke="none" fill="#dc9c4c" fill-rule="evenodd"></path><path id="path2" d="M108.500 0.268 C 107.785 0.369,107.200 0.619,107.200 0.825 C 107.200 1.031,106.750 1.200,106.200 1.200 C 105.650 1.200,105.200 1.341,105.200 1.513 C 105.200 1.685,104.705 1.866,104.100 1.916 C 103.495 1.966,102.940 2.185,102.867 2.403 C 102.793 2.622,102.386 2.800,101.961 2.800 C 101.215 2.800,100.824 2.945,98.905 3.938 C 98.413 4.192,97.648 4.400,97.205 4.400 C 96.762 4.400,96.400 4.542,96.400 4.715 C 96.400 4.888,95.998 5.060,95.506 5.097 C 95.014 5.134,94.549 5.352,94.473 5.582 C 94.396 5.812,93.909 6.000,93.390 6.000 C 92.872 6.000,92.336 6.180,92.200 6.400 C 92.064 6.620,91.524 6.800,91.000 6.800 C 90.476 6.800,89.936 6.980,89.800 7.200 C 89.664 7.420,89.013 7.600,88.353 7.600 C 87.655 7.600,87.256 7.767,87.400 8.000 C 87.536 8.220,87.287 8.400,86.847 8.400 C 86.407 8.400,85.941 8.572,85.811 8.783 C 85.681 8.993,85.325 9.069,85.020 8.952 C 84.714 8.835,84.045 9.003,83.532 9.325 C 83.020 9.648,82.297 9.859,81.928 9.795 C 81.558 9.731,81.154 9.943,81.030 10.265 C 80.907 10.587,80.614 10.732,80.381 10.588 C 79.998 10.351,75.989 11.712,75.000 12.415 C 74.348 12.878,69.803 14.400,69.073 14.400 C 68.703 14.400,68.400 14.580,68.400 14.800 C 68.400 15.020,67.860 15.200,67.200 15.200 C 66.540 15.200,66.000 15.380,66.000 15.600 C 66.000 15.820,65.449 16.000,64.776 16.000 C 64.063 16.000,63.656 16.167,63.800 16.400 C 63.936 16.620,63.677 16.800,63.224 16.800 C 62.771 16.800,62.400 16.960,62.400 17.156 C 62.400 17.351,62.175 17.503,61.900 17.493 C 60.436 17.438,59.581 17.645,59.800 18.000 C 59.944 18.233,59.537 18.400,58.824 18.400 C 58.151 18.400,57.600 18.580,57.600 18.800 C 57.600 19.020,57.060 19.200,56.400 19.200 C 55.740 19.200,55.200 19.380,55.200 19.600 C 55.200 19.820,54.840 20.000,54.400 20.000 C 53.960 20.000,53.600 20.180,53.600 20.400 C 53.600 20.620,53.238 20.800,52.795 20.800 C 52.352 20.800,51.632 20.980,51.195 21.200 C 50.758 21.420,50.042 21.780,49.605 22.000 C 49.168 22.220,48.459 22.400,48.029 22.400 C 47.599 22.400,47.158 22.544,47.049 22.721 C 46.940 22.897,45.939 23.290,44.825 23.593 C 43.711 23.896,42.800 24.272,42.800 24.427 C 42.800 24.582,42.305 24.801,41.700 24.914 C 39.460 25.331,38.653 25.591,38.419 25.968 C 38.288 26.181,37.825 26.302,37.390 26.237 C 36.956 26.172,36.226 26.363,35.768 26.661 C 35.311 26.959,34.806 27.072,34.646 26.913 C 34.487 26.754,34.213 26.855,34.038 27.138 C 33.863 27.421,33.468 27.704,33.160 27.765 C 32.852 27.827,32.090 28.086,31.466 28.341 C 30.843 28.597,30.168 28.704,29.966 28.579 C 29.765 28.455,29.600 28.644,29.600 29.000 C 29.600 29.356,29.420 29.536,29.200 29.400 C 28.980 29.264,28.575 29.293,28.300 29.465 C 28.025 29.636,27.476 29.827,27.079 29.889 C 26.683 29.951,25.614 30.361,24.704 30.801 C 23.794 31.240,22.811 31.600,22.519 31.600 C 22.228 31.600,21.677 31.759,21.295 31.953 C 19.981 32.621,18.596 33.134,16.700 33.654 C 15.655 33.940,14.800 34.315,14.800 34.487 C 14.800 34.659,14.361 34.800,13.824 34.800 C 13.287 34.800,12.736 34.980,12.600 35.200 C 12.464 35.420,12.014 35.600,11.599 35.600 C 10.810 35.600,7.897 37.146,7.667 37.687 C 7.593 37.859,7.314 38.000,7.045 38.000 C 6.776 38.000,5.869 38.630,5.028 39.400 C 4.187 40.170,3.646 40.800,3.825 40.800 C 4.003 40.800,3.671 41.300,3.086 41.910 C 2.501 42.521,1.954 43.376,1.871 43.810 C 1.788 44.245,1.618 44.870,1.493 45.200 C 0.719 47.239,0.260 52.400,0.853 52.400 C 1.044 52.400,1.200 52.906,1.200 53.525 C 1.200 54.819,2.628 58.000,3.209 58.000 C 3.424 58.000,3.600 58.270,3.600 58.600 C 3.600 58.930,3.780 59.200,4.000 59.200 C 4.220 59.200,4.400 59.389,4.400 59.619 C 4.400 60.078,6.407 61.967,6.917 61.987 C 7.091 61.994,7.620 62.360,8.092 62.800 C 8.564 63.240,9.241 63.600,9.595 63.600 C 9.950 63.600,10.439 63.799,10.682 64.042 C 11.252 64.612,19.624 64.608,19.977 64.037 C 20.117 63.811,20.797 63.582,21.488 63.530 C 22.179 63.477,22.656 63.291,22.549 63.117 C 22.441 62.943,22.813 62.800,23.376 62.800 C 23.939 62.800,24.400 62.620,24.400 62.400 C 24.400 62.180,24.738 62.000,25.151 62.000 C 25.564 62.000,26.111 61.748,26.367 61.440 C 26.810 60.906,28.376 60.230,33.500 58.361 C 34.765 57.900,36.160 57.372,36.600 57.189 C 37.040 57.007,38.750 56.383,40.400 55.804 C 48.856 52.835,57.706 49.641,59.800 48.801 C 60.240 48.625,61.230 48.264,62.000 48.000 C 62.770 47.736,63.760 47.376,64.200 47.200 C 64.640 47.024,65.630 46.664,66.400 46.400 C 67.170 46.136,68.160 45.776,68.600 45.600 C 69.040 45.424,70.030 45.064,70.800 44.800 C 71.570 44.536,72.560 44.176,73.000 44.000 C 73.440 43.824,74.430 43.464,75.200 43.200 C 75.970 42.936,76.960 42.575,77.400 42.399 C 81.356 40.813,91.659 37.200,92.225 37.200 C 92.534 37.200,93.510 38.343,94.392 39.740 C 95.807 41.981,98.358 44.690,101.154 46.921 C 102.209 47.763,106.520 50.000,107.087 50.000 C 107.843 50.000,108.657 51.427,109.142 53.600 C 109.412 54.810,109.842 56.496,110.096 57.347 C 110.678 59.291,110.469 59.465,105.485 61.174 C 103.458 61.868,100.855 62.789,99.700 63.218 C 98.545 63.648,96.565 64.378,95.300 64.839 C 94.035 65.300,92.640 65.822,92.200 65.999 C 91.760 66.175,90.770 66.536,90.000 66.800 C 89.230 67.064,88.240 67.434,87.800 67.620 C 87.360 67.807,86.190 68.222,85.200 68.542 C 83.477 69.100,80.701 70.110,79.000 70.798 C 78.560 70.976,77.165 71.500,75.900 71.961 C 74.635 72.422,72.655 73.150,71.500 73.579 C 70.345 74.007,66.880 75.255,63.800 76.353 C 60.720 77.450,56.671 78.905,54.803 79.587 C 51.395 80.830,48.479 82.528,48.113 83.484 C 48.005 83.765,47.710 83.878,47.458 83.734 C 47.206 83.590,47.129 83.614,47.286 83.788 C 47.443 83.963,47.359 84.487,47.098 84.953 C 45.645 87.550,44.873 95.833,45.980 96.940 C 46.211 97.171,46.400 97.684,46.400 98.080 C 46.400 98.476,46.550 98.800,46.732 98.800 C 46.915 98.800,47.320 99.294,47.632 99.898 C 48.334 101.254,51.585 104.400,52.285 104.400 C 52.568 104.400,52.800 104.558,52.800 104.751 C 52.800 104.945,53.295 105.288,53.900 105.514 C 54.505 105.740,55.360 106.064,55.800 106.234 C 56.991 106.693,63.946 106.811,64.215 106.376 C 64.343 106.169,64.977 106.000,65.624 106.000 C 66.271 106.000,66.800 105.849,66.800 105.664 C 66.800 105.358,68.932 104.512,70.400 104.236 C 71.125 104.099,72.978 103.360,74.561 102.575 C 75.200 102.259,75.937 102.000,76.199 102.000 C 76.462 102.000,76.977 101.667,77.345 101.260 C 78.092 100.436,79.834 99.739,93.000 94.996 C 98.196 93.125,100.460 92.306,104.600 90.800 C 109.909 88.870,111.449 88.302,112.200 88.001 C 112.640 87.825,113.630 87.464,114.400 87.200 C 115.170 86.936,116.160 86.566,116.600 86.380 C 117.496 85.999,121.136 84.800,121.395 84.800 C 121.486 84.800,122.379 86.064,123.378 87.609 C 124.377 89.153,125.918 91.358,126.801 92.509 C 127.684 93.659,128.540 94.784,128.703 95.008 C 129.722 96.408,134.164 101.439,136.525 103.866 C 138.626 106.026,139.244 106.909,139.035 107.454 C 138.882 107.851,138.879 108.055,139.026 107.907 C 139.174 107.759,139.540 107.855,139.839 108.119 C 140.137 108.384,141.032 109.140,141.826 109.800 C 142.621 110.460,144.088 111.765,145.088 112.700 C 146.087 113.635,147.152 114.400,147.453 114.400 C 147.754 114.400,148.000 114.550,148.000 114.732 C 148.000 114.915,148.495 115.320,149.100 115.632 C 149.705 115.945,150.613 116.605,151.118 117.100 C 151.623 117.595,152.180 118.000,152.356 118.000 C 152.532 118.000,153.199 118.450,153.838 119.000 C 154.477 119.549,155.212 119.999,155.471 120.000 C 156.037 120.000,160.943 122.856,161.134 123.296 C 161.208 123.466,161.433 123.503,161.634 123.379 C 161.835 123.255,162.000 123.308,162.000 123.497 C 162.000 123.687,162.945 124.173,164.100 124.577 C 165.255 124.981,166.371 125.467,166.580 125.656 C 166.789 125.845,167.284 126.000,167.680 126.000 C 168.076 126.000,168.400 126.180,168.400 126.400 C 168.400 126.620,168.749 126.800,169.176 126.800 C 169.603 126.800,170.064 126.980,170.200 127.200 C 170.336 127.420,170.887 127.600,171.424 127.600 C 171.961 127.600,172.400 127.780,172.400 128.000 C 172.400 128.220,172.760 128.400,173.200 128.400 C 173.640 128.400,174.000 128.560,174.000 128.756 C 174.000 129.093,174.449 129.210,178.100 129.832 C 178.925 129.973,179.600 130.248,179.600 130.444 C 179.600 130.640,180.050 130.800,180.600 130.800 C 181.665 130.800,181.703 131.017,181.675 136.903 C 181.671 137.729,181.832 138.304,182.034 138.179 C 182.252 138.044,182.420 143.486,182.451 151.676 C 182.508 167.156,182.499 166.845,182.880 167.429 C 183.034 167.666,183.188 174.191,183.223 181.929 C 183.259 189.856,183.442 196.000,183.643 196.000 C 183.843 196.000,184.000 200.557,184.000 206.356 C 184.000 215.641,184.072 216.796,184.700 217.526 C 185.358 218.292,205.135 228.390,214.454 232.718 C 214.594 232.783,214.782 229.723,214.871 225.918 C 214.974 221.560,215.213 218.677,215.517 218.126 C 215.860 217.507,216.000 214.222,216.000 206.826 C 216.000 200.954,216.156 196.400,216.358 196.400 C 216.561 196.400,216.743 190.157,216.777 181.977 C 216.811 173.971,217.007 167.107,217.219 166.550 C 217.433 165.987,217.600 159.608,217.600 151.974 C 217.600 144.508,217.735 138.400,217.900 138.400 C 218.369 138.400,218.514 131.220,218.057 130.668 C 217.457 129.946,218.077 100.478,218.715 99.326 C 219.053 98.718,219.200 95.838,219.200 89.850 C 219.200 85.118,219.343 81.159,219.517 81.051 C 219.692 80.943,219.887 76.845,219.951 71.945 C 220.077 62.321,220.124 62.122,222.439 61.387 C 222.849 61.258,223.142 61.016,223.092 60.851 C 222.996 60.538,224.425 58.537,225.800 57.060 C 226.240 56.587,226.870 55.660,227.199 55.000 C 227.529 54.340,227.889 53.710,227.999 53.600 C 228.485 53.116,229.200 51.557,229.200 50.982 C 229.200 50.636,229.380 50.464,229.600 50.600 C 229.838 50.747,230.000 50.271,230.000 49.424 C 230.000 48.641,230.180 48.000,230.400 48.000 C 230.620 48.000,230.800 47.471,230.800 46.824 C 230.800 46.177,230.980 45.536,231.200 45.400 C 231.420 45.264,231.600 43.893,231.600 42.353 C 231.600 40.813,231.745 39.643,231.923 39.753 C 232.101 39.862,232.287 39.258,232.337 38.409 C 232.388 37.560,232.242 36.750,232.014 36.609 C 231.784 36.467,231.600 34.928,231.600 33.153 C 231.600 31.121,231.454 30.043,231.200 30.200 C 230.857 30.412,230.578 28.931,230.763 27.870 C 230.794 27.689,230.635 27.655,230.410 27.794 C 230.164 27.946,230.000 27.557,230.000 26.824 C 230.000 26.151,229.820 25.600,229.600 25.600 C 229.380 25.600,229.200 25.255,229.200 24.833 C 229.200 24.412,229.065 24.007,228.900 23.933 C 228.735 23.860,228.150 22.904,227.600 21.808 C 226.592 19.801,226.282 19.354,224.573 17.445 C 224.058 16.870,223.717 16.400,223.815 16.400 C 224.074 16.400,221.647 14.121,220.286 13.087 C 219.644 12.599,218.696 11.795,218.178 11.300 C 217.660 10.805,216.958 10.400,216.618 10.400 C 216.278 10.400,216.000 10.220,216.000 10.000 C 216.000 9.780,215.640 9.600,215.200 9.600 C 214.760 9.600,214.400 9.401,214.400 9.157 C 214.400 8.914,214.136 8.816,213.813 8.940 C 213.490 9.064,213.119 8.993,212.989 8.783 C 212.859 8.572,212.403 8.400,211.976 8.400 C 211.549 8.400,211.200 8.220,211.200 8.000 C 211.200 7.780,211.065 7.621,210.900 7.647 C 209.941 7.799,208.383 7.551,208.555 7.274 C 208.665 7.094,207.911 6.904,206.878 6.851 C 205.845 6.798,204.829 6.585,204.620 6.378 C 204.108 5.869,195.715 5.890,195.400 6.400 C 195.264 6.620,194.454 6.800,193.600 6.800 C 192.746 6.800,191.936 6.980,191.800 7.200 C 191.664 7.420,191.111 7.600,190.571 7.600 C 190.031 7.600,189.232 7.780,188.795 8.000 C 188.358 8.220,187.621 8.593,187.158 8.830 C 186.571 9.129,186.396 9.131,186.579 8.834 C 186.739 8.574,186.600 8.502,186.221 8.647 C 185.879 8.778,185.600 9.046,185.600 9.243 C 185.600 9.439,185.259 9.600,184.843 9.600 C 184.426 9.600,183.975 9.889,183.839 10.242 C 183.704 10.594,183.340 10.786,183.030 10.667 C 182.720 10.548,182.367 10.709,182.245 11.026 C 182.124 11.342,181.389 11.904,180.612 12.275 C 179.836 12.645,179.200 13.185,179.200 13.474 C 179.200 13.763,179.038 14.000,178.840 14.000 C 178.642 14.000,177.877 14.626,177.140 15.392 C 175.210 17.397,174.800 17.917,174.800 18.360 C 174.800 18.577,174.472 18.990,174.071 19.277 C 173.670 19.565,173.086 20.385,172.773 21.100 C 172.461 21.815,172.069 22.400,171.902 22.400 C 171.736 22.400,171.600 22.760,171.600 23.200 C 171.600 23.640,171.420 24.000,171.200 24.000 C 170.980 24.000,170.800 24.360,170.800 24.800 C 170.800 25.240,170.620 25.600,170.400 25.600 C 170.180 25.600,170.000 26.151,170.000 26.824 C 170.000 27.557,169.836 27.946,169.590 27.794 C 169.365 27.655,169.206 27.689,169.237 27.870 C 169.406 28.842,169.153 30.418,168.858 30.236 C 168.670 30.120,168.480 31.387,168.436 33.053 C 168.392 34.719,168.147 36.416,167.892 36.825 C 167.538 37.391,167.543 37.887,167.914 38.912 C 168.181 39.652,168.400 41.358,168.400 42.705 C 168.400 44.051,168.580 45.264,168.800 45.400 C 169.020 45.536,169.200 46.177,169.200 46.824 C 169.200 47.471,169.380 48.000,169.600 48.000 C 169.820 48.000,170.000 48.540,170.000 49.200 C 170.000 49.860,170.180 50.400,170.400 50.400 C 170.620 50.400,170.800 50.634,170.800 50.920 C 170.800 51.656,171.741 53.593,172.100 53.597 C 172.265 53.599,172.400 53.870,172.400 54.200 C 172.400 54.530,172.580 54.800,172.800 54.800 C 173.020 54.800,173.200 55.261,173.200 55.824 C 173.200 56.404,173.373 56.740,173.600 56.600 C 173.820 56.464,174.000 56.644,174.000 57.000 C 174.000 57.356,174.149 57.555,174.331 57.442 C 174.514 57.330,175.099 57.944,175.631 58.808 C 176.164 59.672,176.746 60.383,176.924 60.389 C 177.102 60.395,177.153 60.553,177.037 60.740 C 176.922 60.927,177.316 61.332,177.914 61.640 C 179.946 62.688,179.930 62.613,180.063 71.705 C 180.132 76.449,180.326 80.246,180.494 80.142 C 180.662 80.038,180.800 84.087,180.800 89.139 C 180.800 98.128,180.783 98.321,180.000 98.116 C 179.560 98.001,179.200 97.748,179.200 97.553 C 179.200 97.359,178.761 97.200,178.224 97.200 C 177.687 97.200,177.153 97.048,177.038 96.862 C 176.924 96.676,175.653 95.945,174.215 95.237 C 172.777 94.529,171.600 93.781,171.600 93.575 C 171.600 93.369,171.330 93.200,171.000 93.200 C 170.670 93.200,170.400 93.005,170.400 92.767 C 170.400 92.528,170.180 92.407,169.911 92.496 C 169.643 92.586,169.018 92.255,168.524 91.761 C 168.030 91.266,167.260 90.746,166.813 90.604 C 166.366 90.462,166.000 90.190,166.000 90.000 C 166.000 89.810,165.640 89.540,165.200 89.400 C 164.760 89.260,164.400 88.888,164.400 88.573 C 164.400 88.258,164.124 88.000,163.787 88.000 C 163.449 88.000,162.577 87.415,161.848 86.700 C 161.119 85.985,160.090 85.012,159.561 84.539 C 158.039 83.175,155.465 80.364,154.703 79.234 C 154.319 78.665,154.004 78.363,154.003 78.561 C 154.001 78.760,153.640 78.507,153.200 78.000 C 152.760 77.493,152.400 76.933,152.400 76.757 C 152.400 76.581,151.950 75.986,151.400 75.436 C 150.850 74.886,150.400 74.248,150.400 74.018 C 150.400 73.788,150.220 73.600,150.000 73.600 C 149.780 73.600,149.600 73.396,149.600 73.147 C 149.600 72.898,149.285 72.403,148.900 72.047 C 148.172 71.374,146.754 69.029,146.911 68.756 C 146.960 68.670,146.928 68.642,146.840 68.694 C 146.534 68.873,145.625 67.397,145.613 66.700 C 145.606 66.315,145.454 66.000,145.275 66.000 C 145.096 66.000,144.702 65.370,144.400 64.600 C 144.098 63.830,143.744 63.200,143.613 63.200 C 143.482 63.200,143.135 62.390,142.843 61.400 C 142.551 60.410,142.168 59.600,141.993 59.600 C 141.818 59.600,141.551 58.700,141.400 57.600 C 141.249 56.500,140.979 55.600,140.802 55.600 C 140.624 55.600,140.290 55.060,140.060 54.400 C 139.830 53.740,139.744 53.200,139.870 53.200 C 139.995 53.200,139.880 52.938,139.615 52.618 C 139.349 52.297,139.247 51.847,139.389 51.618 C 139.531 51.388,139.507 50.975,139.335 50.700 C 139.009 50.178,138.868 49.589,138.719 48.129 C 138.670 47.650,138.488 47.345,138.315 47.452 C 138.055 47.613,137.785 44.962,137.953 43.900 C 137.979 43.735,137.820 43.600,137.600 43.600 C 136.983 43.600,137.127 41.603,137.761 41.360 C 138.069 41.241,138.427 40.842,138.557 40.472 C 138.686 40.103,139.260 38.990,139.831 38.000 C 140.883 36.176,141.011 35.787,141.445 33.096 C 141.579 32.269,141.849 31.494,142.044 31.373 C 142.546 31.062,142.504 20.800,142.000 20.800 C 141.780 20.800,141.600 20.197,141.600 19.460 C 141.600 17.887,140.873 15.600,140.373 15.600 C 140.182 15.600,140.125 15.339,140.247 15.021 C 140.370 14.702,140.272 14.207,140.029 13.921 C 139.231 12.978,137.600 10.371,137.600 10.038 C 137.600 9.859,136.943 9.102,136.139 8.356 C 135.336 7.610,134.066 6.402,133.318 5.671 C 132.569 4.939,131.355 4.090,130.618 3.782 C 129.882 3.474,129.037 2.990,128.740 2.707 C 128.004 2.003,126.125 1.200,125.215 1.200 C 124.803 1.200,124.393 0.978,124.302 0.706 C 124.135 0.206,111.444 -0.146,108.500 0.268 M277.200 0.269 C 276.650 0.378,276.029 0.632,275.820 0.834 C 275.611 1.035,274.936 1.200,274.320 1.200 C 273.704 1.200,273.200 1.380,273.200 1.600 C 273.200 1.820,272.840 2.000,272.400 2.000 C 271.960 2.000,271.600 2.180,271.600 2.400 C 271.600 2.620,271.229 2.800,270.776 2.800 C 270.323 2.800,270.064 2.980,270.200 3.200 C 270.336 3.420,270.167 3.600,269.824 3.600 C 269.481 3.600,269.200 3.780,269.200 4.000 C 269.200 4.220,268.968 4.400,268.685 4.400 C 268.250 4.400,267.092 5.343,263.919 8.281 C 262.949 9.179,261.828 10.868,260.987 12.700 C 260.658 13.415,260.248 14.000,260.075 14.000 C 259.620 14.000,258.704 16.721,258.999 17.198 C 259.135 17.419,259.057 17.600,258.824 17.600 C 258.591 17.600,258.400 18.331,258.400 19.224 C 258.400 20.204,258.242 20.749,258.000 20.600 C 257.741 20.440,257.600 22.188,257.600 25.553 C 257.600 28.413,257.761 30.852,257.958 30.974 C 258.155 31.095,258.423 31.961,258.555 32.897 C 258.687 33.834,258.871 34.960,258.964 35.400 C 259.057 35.840,259.148 36.346,259.167 36.524 C 259.185 36.702,259.399 36.724,259.643 36.574 C 259.941 36.389,259.997 36.578,259.816 37.150 C 259.668 37.617,259.716 38.000,259.925 38.000 C 260.133 38.000,260.533 38.585,260.815 39.300 C 261.097 40.015,261.670 40.879,262.088 41.220 C 262.849 41.841,262.399 47.200,261.585 47.200 C 261.434 47.200,261.340 47.605,261.378 48.100 C 261.416 48.595,261.279 49.225,261.074 49.500 C 260.870 49.775,260.836 50.000,261.000 50.000 C 261.164 50.000,261.080 50.262,260.815 50.582 C 260.549 50.903,260.438 51.338,260.568 51.549 C 260.699 51.760,260.595 52.443,260.336 53.066 C 260.078 53.690,259.829 54.335,259.784 54.500 C 259.738 54.665,259.656 54.935,259.603 55.100 C 259.549 55.265,259.527 55.535,259.553 55.700 C 259.579 55.865,259.444 56.000,259.252 56.000 C 259.061 56.000,258.806 56.608,258.685 57.351 C 258.565 58.094,258.091 59.477,257.633 60.426 C 257.175 61.374,256.800 62.386,256.800 62.675 C 256.800 62.964,256.620 63.200,256.400 63.200 C 256.180 63.200,256.000 63.470,256.000 63.800 C 256.000 64.130,255.858 64.400,255.685 64.400 C 255.512 64.400,255.340 64.802,255.303 65.294 C 255.266 65.786,255.048 66.251,254.818 66.327 C 254.588 66.404,254.400 66.722,254.400 67.033 C 254.400 67.345,254.220 67.600,254.000 67.600 C 253.780 67.600,253.600 67.881,253.600 68.224 C 253.600 68.593,253.412 68.731,253.138 68.562 C 252.864 68.393,252.785 68.451,252.942 68.706 C 253.088 68.942,252.936 69.407,252.604 69.739 C 252.272 70.071,252.000 70.561,252.000 70.828 C 252.000 71.095,251.505 71.800,250.900 72.395 C 250.295 72.991,249.741 73.728,249.668 74.035 C 249.595 74.342,249.407 74.684,249.249 74.796 C 249.091 74.908,248.526 75.630,247.994 76.400 C 246.709 78.259,246.147 78.813,245.848 78.514 C 245.711 78.378,245.600 78.463,245.600 78.703 C 245.600 78.942,245.046 79.692,244.369 80.369 C 243.692 81.046,243.266 81.600,243.421 81.600 C 243.577 81.600,242.927 82.275,241.977 83.100 C 241.027 83.925,239.478 85.365,238.535 86.300 C 237.592 87.235,236.546 88.000,236.211 88.000 C 235.875 88.000,235.600 88.270,235.600 88.600 C 235.600 88.930,235.463 89.200,235.296 89.200 C 235.129 89.200,234.537 89.605,233.981 90.100 C 233.425 90.595,232.719 91.056,232.411 91.125 C 232.103 91.194,231.569 91.570,231.225 91.962 C 230.881 92.354,230.375 92.598,230.100 92.504 C 229.825 92.410,229.600 92.528,229.600 92.767 C 229.600 93.005,229.324 93.200,228.987 93.200 C 228.651 93.200,228.271 93.470,228.145 93.800 C 228.018 94.130,227.669 94.400,227.370 94.400 C 227.070 94.400,226.913 94.628,227.020 94.907 C 227.127 95.186,227.049 102.611,226.847 111.407 C 226.508 126.176,226.605 129.286,227.368 128.051 C 227.522 127.803,228.087 127.600,228.624 127.600 C 229.161 127.600,229.600 127.420,229.600 127.200 C 229.600 126.980,230.050 126.800,230.600 126.800 C 231.150 126.800,231.600 126.620,231.600 126.400 C 231.600 126.180,231.836 126.000,232.125 126.000 C 232.414 126.000,233.395 125.640,234.306 125.200 C 235.216 124.760,236.135 124.400,236.347 124.400 C 236.560 124.400,236.793 124.225,236.867 124.012 C 236.940 123.798,237.366 123.568,237.814 123.500 C 238.262 123.432,239.189 122.977,239.876 122.489 C 240.562 122.000,241.411 121.600,241.762 121.600 C 242.113 121.600,242.400 121.420,242.400 121.200 C 242.400 120.980,242.760 120.800,243.200 120.800 C 243.640 120.800,244.000 120.620,244.000 120.400 C 244.000 120.180,244.225 120.000,244.500 120.000 C 244.775 119.999,245.540 119.534,246.200 118.965 C 246.860 118.396,247.895 117.637,248.500 117.279 C 249.105 116.921,249.600 116.486,249.600 116.314 C 249.600 116.141,249.836 116.000,250.125 116.000 C 250.413 116.000,250.998 115.685,251.425 115.300 C 251.852 114.915,252.831 114.125,253.600 113.545 C 254.370 112.965,255.426 112.116,255.948 111.657 C 256.469 111.199,257.247 110.712,257.678 110.575 C 258.108 110.439,258.360 110.227,258.237 110.104 C 257.998 109.864,260.001 108.001,260.500 108.000 C 260.665 108.000,260.800 107.698,260.800 107.329 C 260.800 106.960,262.105 105.292,263.700 103.624 C 269.191 97.880,272.722 93.516,276.615 87.661 C 277.661 86.087,278.575 84.800,278.645 84.800 C 278.873 84.800,282.578 86.031,283.400 86.380 C 283.840 86.566,284.830 86.936,285.600 87.200 C 286.370 87.464,287.360 87.828,287.800 88.008 C 288.600 88.334,292.817 89.871,302.600 93.401 C 305.460 94.433,308.970 95.699,310.400 96.215 C 311.830 96.731,314.530 97.725,316.400 98.422 C 318.270 99.120,320.191 99.779,320.668 99.886 C 321.146 99.993,321.942 100.513,322.438 101.041 C 322.934 101.568,323.561 102.000,323.832 102.000 C 324.103 102.000,325.016 102.345,325.862 102.767 C 327.808 103.737,328.745 104.081,330.000 104.286 C 330.550 104.376,331.171 104.618,331.380 104.825 C 331.589 105.031,332.185 105.200,332.704 105.200 C 333.231 105.200,333.538 105.377,333.400 105.600 C 333.253 105.838,333.729 106.000,334.576 106.000 C 335.359 106.000,336.000 106.140,336.000 106.312 C 336.000 106.815,341.439 106.873,343.296 106.389 C 345.558 105.800,347.200 105.080,347.200 104.679 C 347.200 104.499,347.351 104.446,347.537 104.561 C 347.846 104.752,350.565 102.310,352.009 100.545 C 354.146 97.931,355.354 89.871,354.008 87.207 C 353.783 86.763,353.420 86.042,353.200 85.605 C 352.980 85.168,352.800 84.528,352.800 84.182 C 352.800 83.836,352.639 83.652,352.442 83.774 C 352.245 83.896,351.995 83.765,351.887 83.484 C 351.521 82.529,348.607 80.830,345.197 79.583 C 341.356 78.179,333.836 75.450,327.600 73.198 C 325.290 72.363,321.870 71.111,320.000 70.414 C 318.130 69.717,315.790 68.880,314.800 68.553 C 313.810 68.227,312.640 67.806,312.200 67.619 C 311.455 67.301,310.259 66.858,304.600 64.800 C 303.390 64.360,301.455 63.656,300.300 63.235 C 299.145 62.814,296.850 61.986,295.200 61.395 C 289.177 59.237,289.340 59.363,289.957 57.360 C 290.153 56.722,290.543 55.120,290.823 53.800 C 291.313 51.492,292.123 50.000,292.887 50.000 C 293.579 50.000,298.400 47.515,298.400 47.158 C 298.400 46.961,298.638 46.800,298.929 46.800 C 299.784 46.800,303.555 42.822,305.469 39.900 C 306.443 38.415,307.486 37.200,307.788 37.200 C 308.364 37.200,319.551 41.137,322.600 42.413 C 323.040 42.597,324.570 43.131,326.000 43.600 C 327.430 44.069,329.005 44.621,329.500 44.826 C 331.274 45.563,332.221 45.927,333.600 46.400 C 334.370 46.664,335.360 47.034,335.800 47.220 C 336.240 47.407,337.410 47.821,338.400 48.141 C 339.390 48.461,341.370 49.178,342.800 49.734 C 345.371 50.734,358.498 55.484,364.505 57.589 C 366.213 58.187,367.728 58.794,367.872 58.938 C 368.016 59.082,368.405 59.200,368.737 59.200 C 369.512 59.200,375.200 62.002,375.200 62.384 C 375.200 62.542,376.184 62.908,377.386 63.197 C 378.589 63.485,379.478 63.874,379.363 64.061 C 378.960 64.712,388.295 64.617,388.980 63.963 C 389.189 63.763,389.740 63.600,390.205 63.600 C 390.669 63.600,391.436 63.240,391.908 62.800 C 392.380 62.360,392.918 62.000,393.103 62.000 C 393.864 62.000,397.682 57.657,397.368 57.148 C 397.250 56.957,397.298 56.799,397.476 56.797 C 398.010 56.792,398.800 54.731,398.800 53.344 C 398.800 52.631,398.980 51.936,399.200 51.800 C 399.694 51.495,399.723 49.161,399.249 47.919 C 399.057 47.413,398.693 46.130,398.442 45.068 C 397.843 42.530,394.366 38.000,393.018 38.000 C 392.678 38.000,392.400 37.820,392.400 37.600 C 392.400 37.380,392.119 37.200,391.776 37.200 C 391.433 37.200,391.240 37.058,391.348 36.885 C 391.455 36.712,391.070 36.531,390.494 36.483 C 389.917 36.435,389.345 36.261,389.222 36.096 C 389.100 35.931,388.280 35.557,387.400 35.264 C 386.520 34.972,385.037 34.388,384.104 33.966 C 383.172 33.545,382.047 33.200,381.604 33.200 C 381.162 33.200,380.800 33.020,380.800 32.800 C 380.800 32.580,380.361 32.400,379.824 32.400 C 379.287 32.400,378.758 32.256,378.649 32.079 C 378.540 31.903,377.539 31.510,376.425 31.207 C 375.311 30.904,374.400 30.508,374.400 30.328 C 374.400 30.147,374.106 30.000,373.746 30.000 C 372.641 30.000,370.015 29.099,370.209 28.786 C 370.309 28.623,370.168 28.510,369.896 28.533 C 369.071 28.605,366.000 27.498,366.000 27.129 C 366.000 26.939,365.564 26.863,365.031 26.960 C 364.443 27.067,363.978 26.919,363.850 26.587 C 363.730 26.274,363.269 26.110,362.777 26.204 C 362.302 26.296,361.649 26.106,361.325 25.782 C 361.001 25.458,360.582 25.287,360.395 25.403 C 360.208 25.518,359.942 25.430,359.804 25.207 C 359.666 24.983,359.023 24.800,358.376 24.800 C 357.729 24.800,357.200 24.620,357.200 24.400 C 357.200 24.180,356.840 24.000,356.400 24.000 C 355.960 24.000,355.600 23.820,355.600 23.600 C 355.600 23.380,355.049 23.200,354.376 23.200 C 353.663 23.200,353.256 23.033,353.400 22.800 C 353.547 22.562,353.079 22.400,352.247 22.400 C 351.477 22.400,350.736 22.220,350.600 22.000 C 350.464 21.780,350.003 21.600,349.576 21.600 C 349.149 21.600,348.800 21.420,348.800 21.200 C 348.800 20.980,348.260 20.800,347.600 20.800 C 346.940 20.800,346.400 20.620,346.400 20.400 C 346.400 20.180,346.051 20.000,345.624 20.000 C 345.197 20.000,344.736 19.820,344.600 19.600 C 344.464 19.380,343.913 19.200,343.376 19.200 C 342.839 19.200,342.400 19.020,342.400 18.800 C 342.400 18.580,341.950 18.400,341.400 18.400 C 340.850 18.400,340.400 18.220,340.400 18.000 C 340.400 17.780,339.871 17.600,339.224 17.600 C 338.577 17.600,337.936 17.420,337.800 17.200 C 337.664 16.980,337.193 16.800,336.753 16.800 C 336.226 16.800,336.051 16.629,336.241 16.300 C 336.399 16.025,336.394 15.921,336.229 16.068 C 335.890 16.373,331.999 15.318,331.420 14.764 C 331.211 14.564,330.626 14.400,330.120 14.400 C 329.614 14.400,329.200 14.220,329.200 14.000 C 329.200 13.780,328.840 13.600,328.400 13.600 C 327.960 13.600,327.600 13.459,327.600 13.287 C 327.600 13.115,327.113 12.934,326.518 12.885 C 325.922 12.836,325.270 12.630,325.069 12.429 C 324.867 12.227,324.454 12.158,324.151 12.274 C 323.848 12.390,323.600 12.276,323.600 12.019 C 323.600 11.763,323.420 11.664,323.200 11.800 C 322.980 11.936,322.800 11.846,322.800 11.600 C 322.800 11.354,322.632 11.256,322.428 11.383 C 322.223 11.509,321.940 11.427,321.800 11.200 C 321.660 10.973,321.377 10.891,321.172 11.017 C 320.968 11.144,320.800 11.095,320.800 10.909 C 320.800 10.723,320.411 10.541,319.936 10.505 C 319.461 10.469,318.966 10.290,318.836 10.107 C 318.706 9.923,318.330 9.794,318.000 9.820 C 317.670 9.845,316.980 9.613,316.468 9.303 C 315.955 8.993,315.280 8.837,314.968 8.957 C 314.655 9.077,314.400 9.001,314.400 8.787 C 314.400 8.574,313.860 8.400,313.200 8.400 C 312.540 8.400,312.000 8.220,312.000 8.000 C 312.000 7.780,311.721 7.600,311.381 7.600 C 311.040 7.600,310.016 7.240,309.106 6.800 C 308.195 6.360,307.034 6.000,306.525 6.000 C 306.016 6.000,305.600 5.820,305.600 5.600 C 305.600 5.380,305.251 5.200,304.824 5.200 C 304.397 5.200,303.936 5.020,303.800 4.800 C 303.664 4.580,303.113 4.400,302.576 4.400 C 302.039 4.400,301.600 4.220,301.600 4.000 C 301.600 3.780,301.238 3.600,300.795 3.600 C 300.352 3.600,299.677 3.441,299.295 3.247 C 298.051 2.614,296.631 2.062,295.000 1.577 C 294.120 1.316,293.040 0.902,292.600 0.659 C 291.786 0.208,279.123 -0.112,277.200 0.269 M213.649 16.753 C 222.850 22.842,227.019 32.796,224.809 43.400 C 220.744 62.907,195.778 70.134,182.000 55.793 L 180.200 53.920 182.000 54.171 C 189.944 55.280,195.224 54.584,200.337 51.753 C 212.866 44.816,217.513 28.986,210.547 16.965 C 208.886 14.098,209.566 14.051,213.649 16.753 M185.893 245.504 C 185.533 246.213,185.614 282.135,185.976 282.571 C 186.189 282.828,186.417 284.469,186.482 286.219 L 186.600 289.400 193.170 292.751 L 199.740 296.102 203.370 294.232 C 214.646 288.423,213.537 289.388,213.634 285.300 C 213.677 283.485,213.857 282.000,214.034 282.000 C 214.211 282.000,214.370 276.695,214.388 270.211 L 214.421 258.422 208.710 255.660 C 205.570 254.141,202.100 252.491,201.000 251.994 C 199.900 251.497,196.660 250.012,193.800 248.695 C 186.641 245.398,186.064 245.166,185.893 245.504 M198.000 317.218 C 195.807 318.389,189.653 321.200,189.284 321.200 C 187.449 321.200,185.838 338.311,187.572 339.383 C 187.780 339.512,187.962 343.470,187.985 348.407 C 188.007 353.244,188.124 357.458,188.244 357.771 C 188.364 358.084,192.543 360.351,197.531 362.810 C 202.519 365.268,207.467 367.729,208.527 368.279 C 209.587 368.829,210.553 369.180,210.674 369.060 C 211.061 368.673,211.658 360.489,212.051 350.200 C 213.055 323.873,212.969 321.200,211.116 321.200 C 210.918 321.200,208.511 320.120,205.768 318.800 C 200.317 316.178,200.051 316.123,198.000 317.218 M189.037 382.857 C 188.844 388.351,188.889 391.049,189.177 391.337 C 189.410 391.570,189.600 392.309,189.600 392.980 C 189.601 393.700,190.006 394.671,190.589 395.349 C 191.133 395.981,191.684 396.836,191.816 397.249 C 191.947 397.662,192.312 398.000,192.627 398.000 C 192.942 398.000,193.202 398.135,193.205 398.300 C 193.249 401.177,207.968 400.158,207.995 397.276 C 207.998 396.988,208.180 396.864,208.400 397.000 C 208.620 397.136,208.800 396.916,208.800 396.512 C 208.800 396.107,209.160 395.517,209.600 395.200 C 210.125 394.822,210.400 394.165,210.400 393.288 C 210.400 392.500,210.564 392.054,210.800 392.200 C 211.056 392.358,211.200 391.072,211.200 388.627 L 211.200 384.806 205.379 382.003 C 202.177 380.461,199.499 379.200,199.429 379.200 C 199.358 379.200,197.209 378.210,194.653 377.000 C 192.098 375.790,189.853 374.800,189.664 374.800 C 189.475 374.800,189.193 378.426,189.037 382.857 " stroke="none" fill="#ebbf72" fill-rule="evenodd"></path><path id="path3" d="M146.180 151.300 C 141.818 155.328,145.762 162.372,151.513 160.823 C 156.098 159.589,157.091 153.229,153.081 150.784 C 150.934 149.475,147.912 149.701,146.180 151.300 M246.968 150.754 C 245.595 151.591,244.400 153.754,244.400 155.400 C 244.400 160.360,250.501 162.793,254.047 159.247 C 258.655 154.640,252.569 147.339,246.968 150.754 " stroke="none" fill="#312e55" fill-rule="evenodd"></path><path id="path4" d="M147.400 149.667 C 144.119 151.481,142.757 154.987,144.204 157.888 C 145.024 159.531,146.751 161.200,147.631 161.200 C 148.028 161.200,148.464 161.380,148.600 161.600 C 148.736 161.820,149.366 162.000,150.000 162.000 C 150.634 162.000,151.264 161.820,151.400 161.600 C 151.536 161.380,151.961 161.200,152.345 161.200 C 153.802 161.200,156.400 157.503,156.400 155.430 C 156.400 151.280,150.878 147.743,147.400 149.667 M247.400 149.855 C 243.293 152.140,242.635 156.551,245.911 159.829 C 250.517 164.439,258.319 159.090,255.796 153.052 C 254.577 150.134,250.017 148.398,247.400 149.855 M153.081 150.784 C 157.091 153.229,156.098 159.589,151.513 160.823 C 147.180 161.990,143.799 158.721,144.537 154.078 C 145.095 150.567,149.769 148.765,153.081 150.784 M253.235 150.912 C 254.979 152.087,255.587 153.333,255.594 155.747 C 255.611 161.343,247.477 162.963,245.049 157.847 C 242.602 152.689,248.481 147.708,253.235 150.912 " stroke="none" fill="#995676" fill-rule="evenodd"></path></g></svg>